<svg xmlns="http://www.w3.org/2000/svg" height="400pt" width="200pt" version="1.1" xmlns:xlink="http://www.w3.org/1999/xlink" viewBox="0 0 35.277776 70.555558">
<defs>
<radialGradient id="radialGradient831" gradientUnits="userSpaceOnUse" cy="234.18" cx="15.545" gradientTransform="matrix(-1.8 4.8 -2.706 -1.0146 714.57 375.32)" r="17.639">
<stop stop-color="#ea5858" offset="0"/>
<stop stop-color="#524656" offset="1"/>
</radialGradient>
</defs>
<g transform="translate(-18.521 -224.89)">
<circle stroke-linejoin="round" style="paint-order:stroke markers fill" cx="47.625" stroke-linecap="round" stroke="#ffffff" cy="237.25" r="0" stroke-width="1.7639" fill="#ffffff"/>
<path fill="url(#radialGradient831)" d="m36.115 224.89c-0.0632 0.003-0.12589 0.0127-0.18712 0.0287l-5.569 1.4202c-0.16114 0.041-0.30824 0.12428-0.42592 0.24112l-2.5169 2.5015c-0.39082-0.8896-1.0592-1.6513-1.9321-2.1522-0.71747-0.41172-1.5193-0.61686-2.3211-0.61686-0.80176 0-1.6036 0.20514-2.3211 0.61686-1.4348 0.8234-2.3211 2.348-2.3211 3.9947-0.000001 0.24449 0.09762 0.47898 0.27144 0.65199l3.3758 3.3551-3.6347 21.675c-0.04691 0.27757 0.03621 0.56125 0.22574 0.7704l16.71 18.453c0.36876 0.40674 1.0107 0.40674 1.3795 0l16.711-18.44c0.18972-0.20905 0.27305-0.49274 0.22629-0.7704l-3.6347-21.675 3.3758-3.3551c0.17381-0.17301 0.27143-0.4075 0.27143-0.65199-0.000113-1.6468-0.88603-3.1715-2.3211-3.9947-0.71738-0.41159-1.5194-0.61686-2.3211-0.61686-0.80164 0-1.602 0.20527-2.3194 0.61686-0.87338 0.50104-1.5425 1.2627-1.9338 2.1528l-2.5169-2.502c-0.11768-0.11684-0.26478-0.20012-0.42592-0.24112l-5.569-1.4202c-0.08997-0.0232-0.18293-0.0328-0.27578-0.0287zm0.04515 1.8738 5.0925 1.2997 3.5314 3.5092c0.000835 0.001 0.0017 0.002 0.0028 0.003l3.5036 3.4816v0.00055l3.5895 21.414-15.721 17.362-15.72-17.362 3.5896-21.414 3.5036-3.4816c0.000835-0.001 0.0017-0.002 0.0028-0.003l3.5314-3.5092zm-12.997 1.3916c0.48054 0 0.96047 0.12433 1.392 0.37195 0.76882 0.44123 1.2107 1.2314 1.3115 2.0949l-2.7046 2.6875-2.7046-2.688c0.10091-0.8633 0.54333-1.6532 1.312-2.0944 0.43151-0.24762 0.91307-0.37195 1.3936-0.37195zm25.993 0c0.48046 0 0.96216 0.12441 1.3936 0.37195 0.76884 0.44106 1.211 1.231 1.312 2.0944l-2.7046 2.688-2.7046-2.6875c0.10082-0.86355 0.54252-1.6538 1.3115-2.0949 0.43146-0.24754 0.91152-0.37195 1.392-0.37195zm-13.014 4.8121c-0.11205 0.002-0.22281 0.0242-0.32692 0.0654l-1.8565 0.73957c-0.27686 0.10947-0.48405 0.34433-0.55701 0.63146l-3.713 14.763c-0.07898 0.31458 0.01396 0.64727 0.24478 0.87636l3.713 3.6903c0.17372 0.17353 0.4097 0.27136 0.65601 0.27193h3.7147c0.24631-0.00055 0.48229-0.0984 0.65601-0.27193l3.713-3.6903c0.23083-0.22909 0.32376-0.56178 0.24478-0.87636l-3.713-14.763c-0.07308-0.28724-0.28048-0.52214-0.55756-0.63146l-1.856-0.73957c-0.11515-0.0456-0.23833-0.0679-0.36227-0.0654zm0.01849 1.9165 1.071 0.42494 3.4704 13.798-3.0695 3.0508h-2.9461l-3.069-3.0508 3.4721-13.798zm-7.4277 0.65362c-0.48082 0-0.96178 0.12348-1.392 0.37033-0.86041 0.49373-1.3936 1.4092-1.3936 2.3966-0.0072 0.50951 0.40229 0.92847 0.91494 0.93583 0.52372 0.008 0.9507-0.4153 0.94322-0.93583 0-0.33111 0.17438-0.63349 0.46291-0.79904 0.28852-0.16557 0.64056-0.16557 0.92908 0 0.28853 0.16555 0.46454 0.46793 0.46454 0.79904-0.02503 1.2548 1.8816 1.2548 1.8565 0 0-0.98743-0.53321-1.9029-1.3936-2.3966-0.4302-0.24685-0.91116-0.37033-1.392-0.37033zm14.854 0c-0.48082 0-0.96178 0.12348-1.392 0.37033-0.86041 0.49373-1.3936 1.4092-1.3936 2.3966-0.0072 0.5095 0.40229 0.92847 0.91493 0.93583 0.52308 0.007 0.94904-0.41595 0.94159-0.93583 0-0.33111 0.17602-0.63349 0.46454-0.79904 0.28852-0.16557 0.64056-0.16557 0.92908 0 0.28852 0.16555 0.46454 0.46793 0.46454 0.79904-0.02515 1.2549 1.8817 1.2549 1.8565 0 0-0.98743-0.53321-1.9029-1.3936-2.3966-0.43021-0.24685-0.91117-0.37033-1.392-0.37033zm-7.4272 9.6653c-0.65023 0-1.3004 0.16683-1.8821 0.50062-1.1634 0.6676-1.881 1.9053-1.881 3.2405-0.0073 0.50867 0.40097 0.92727 0.91276 0.93582 0.52393 0.008 0.95125-0.41508 0.94376-0.93582 0-0.67888 0.36256-1.3035 0.9541-1.643 0.59154-0.33944 1.3161-0.33944 1.9077 0 0.59154 0.33943 0.95192 0.96409 0.95192 1.643 0.000557 1.2309 1.8593 1.2309 1.8587 0 0-1.3352-0.71975-2.5729-1.8832-3.2405-0.58172-0.33379-1.2324-0.50062-1.8826-0.50062zm-10.276 33.604c-0.49215 0-0.84924 0.2997-1.071 0.89907l-1.6014 4.3093c-0.04159 0.124-0.06255 0.25809-0.06255 0.40277 0 0.19289 0.0629 0.35174 0.18766 0.47575 0.12477 0.11712 0.28405 0.17516 0.47814 0.17516 0.31886 0 0.54389-0.20282 0.67559-0.60929l0.24968-0.76498h2.1731l0.229 0.71308c0.13864 0.44091 0.38463 0.66119 0.73815 0.66119 0.19409 0 0.35677-0.0547 0.48847-0.16489 0.13863-0.11713 0.20779-0.27205 0.20779-0.46494 0-0.062-0.01022-0.1279-0.03101-0.19679-0.01386-0.0689-0.03823-0.14779-0.07289-0.23733l-1.5492-4.4023c-0.19409-0.53048-0.54042-0.79581-1.0395-0.79581zm20.378 0c-0.46442 0-0.69626 0.33069-0.69626 0.99205v4.3196c0 0.33068 0.06235 0.56163 0.18712 0.69254 0.1317 0.12401 0.38451 0.18598 0.75882 0.18598h1.6324c0.66544 0 0.99816-0.21351 0.99816-0.64064 0-0.43403-0.33272-0.65146-0.99816-0.65146h-1.1853v-3.906c0-0.66136-0.23238-0.99205-0.69681-0.99205zm-15.763 0.0827c-0.39511 0-0.65526 0.0794-0.78003 0.23787-0.12477 0.15158-0.18712 0.39607-0.18712 0.73364v4.2266c0 0.65449 0.23238 0.98124 0.69681 0.98124 0.46442 0 0.69626-0.32675 0.69626-0.98124v-1.5089l1.6324 2.0463c0.13171 0.15156 0.253 0.27212 0.36391 0.36168 0.11784 0.0826 0.24649 0.1238 0.38512 0.1238 0.19409 0 0.35337-0.0619 0.47814-0.18598 0.12477-0.13088 0.18712-0.28582 0.18712-0.46494 0-0.22046-0.13546-0.48579-0.40579-0.7958l-1.1021-1.2197c0.46442-0.0757 0.82151-0.2583 1.071-0.54765 0.25647-0.29624 0.38458-0.66466 0.38458-1.1056 0-0.56492-0.20067-1.0229-0.6027-1.3743-0.39511-0.35136-0.97382-0.52711-1.7363-0.52711zm5.6289 0c-0.66545 0-0.99816 0.21689-0.99816 0.65091 0 0.42714 0.33272 0.64065 0.99816 0.64065h0.52002v3.9066c0 0.65449 0.23239 0.98124 0.69681 0.98124s0.69626-0.32675 0.69626-0.98124v-3.9066h0.52002c0.66544 0 0.99816-0.21351 0.99816-0.64065 0-0.43402-0.33272-0.65091-0.99816-0.65091zm5.5777 0c-0.39511 0-0.65526 0.0794-0.78003 0.23787-0.12477 0.15158-0.18712 0.39607-0.18712 0.73364v4.2574c0 0.33068 0.06236 0.56163 0.18712 0.69254 0.1317 0.12401 0.38505 0.18598 0.75936 0.18598h1.6324c0.66544 0 0.99816-0.21351 0.99816-0.64064 0-0.43403-0.33272-0.65146-0.99816-0.65146h-1.1853v-1.1467h0.98783c0.65851 0 0.98782-0.21351 0.98782-0.64065 0-0.42713-0.32932-0.64118-0.98782-0.64118h-0.98783v-1.0953h1.1434c0.66544 0 0.99816-0.21351 0.99816-0.64065 0-0.43402-0.33272-0.65091-0.99816-0.65091zm-10.781 1.2813h0.6658c0.2842 0 0.49902 0.0654 0.64459 0.19624 0.1525 0.12401 0.22846 0.29976 0.22846 0.52711 0 0.24113-0.07597 0.43041-0.22846 0.56821-0.15249 0.13088-0.37467 0.19678-0.6658 0.19678h-0.64459zm-5.0827 0.14488h0.02067l0.67614 2.1495h-1.3936zm13.516 8.8252c-0.49215 0-0.84924 0.2997-1.071 0.89906l-1.6009 4.3088c-0.04159 0.124-0.06255 0.25863-0.06255 0.4033 0 0.1929 0.06235 0.35121 0.18712 0.47521 0.12477 0.11712 0.28405 0.17571 0.47814 0.17571 0.31886 0 0.54443-0.20336 0.67614-0.60983l0.24968-0.76445h2.1731l0.22846 0.71309c0.13863 0.44091 0.38463 0.66119 0.73815 0.66119 0.19409 0 0.35731-0.0552 0.48902-0.16543 0.13863-0.11712 0.20779-0.27204 0.20779-0.46494-0.000002-0.062-0.01019-0.12737-0.03101-0.19625-0.01387-0.0689-0.03822-0.14833-0.07289-0.23788l-1.5492-4.4018c-0.19409-0.53047-0.54096-0.7958-1.04-0.7958zm-15.231 0.0827c-0.39511 0-0.65526 0.0789-0.78003 0.23734-0.12477 0.15157-0.18712 0.39606-0.18712 0.73363v4.258c0 0.33068 0.06235 0.5611 0.18712 0.692 0.1317 0.124 0.38505 0.18597 0.75936 0.18597h1.3827c0.71396 0 1.2581-0.16506 1.6324-0.49575 0.37431-0.33757 0.56136-0.78543 0.56136-1.3435 0-0.37891-0.07937-0.67185-0.2388-0.87852-0.15943-0.21357-0.41959-0.37865-0.78003-0.49575v-0.0211c0.29113-0.14466 0.48499-0.33057 0.58203-0.55792 0.09705-0.22735 0.14578-0.49269 0.14578-0.79581 0-0.46158-0.19726-0.83001-0.59237-1.1056-0.38817-0.27556-0.89773-0.41304-1.5285-0.41304zm7.2743 0c-0.3951 0-0.65472 0.0789-0.77949 0.23734-0.12477 0.15157-0.18712 0.39606-0.18712 0.73363v4.258c0 0.33068 0.06235 0.5611 0.18712 0.692 0.1317 0.124 0.38451 0.18597 0.75882 0.18597h1.6324c0.66544 0 0.99816-0.21351 0.99816-0.64064 0-0.43403-0.33272-0.65092-0.99816-0.65092h-1.1853v-1.1472h0.98783c0.65851 0 0.98782-0.2135 0.98782-0.64064 0-0.42713-0.32931-0.64064-0.98782-0.64064h-0.98783v-1.0953h1.1439c0.66544 0 0.99816-0.21352 0.99816-0.64065 0-0.43403-0.33272-0.65092-0.99816-0.65092zm14.297 0c-0.39511 0-0.65472 0.0789-0.77949 0.23734-0.12477 0.15157-0.18712 0.39606-0.18712 0.73363v4.2266c0 0.65448 0.23184 0.98178 0.69626 0.98178s0.69681-0.3273 0.69681-0.98178v-1.5084l1.6324 2.0457c0.1317 0.15157 0.253 0.27212 0.36391 0.36168 0.11784 0.0827 0.24594 0.12435 0.38458 0.12435 0.19409 0 0.35391-0.0619 0.47868-0.18598 0.12477-0.13091 0.18712-0.28636 0.18712-0.46548 0-0.22046-0.13545-0.48525-0.40579-0.79526l-1.1021-1.2197c0.46442-0.0757 0.82151-0.2583 1.0711-0.54765 0.25647-0.29624 0.38457-0.66467 0.38457-1.1056 0-0.56491-0.20121-1.0234-0.60325-1.3748-0.39511-0.35135-0.97382-0.52658-1.7363-0.52658zm-21.145 1.1883h0.6027c0.5476 0 0.82137 0.19605 0.82137 0.58875 0 0.22045-0.0584 0.3793-0.17624 0.47575-0.11784 0.0895-0.33321 0.13408-0.64513 0.13408h-0.6027zm21.572 0.093h0.66526c0.2842 0 0.49957 0.0654 0.64514 0.19625 0.1525 0.124 0.22846 0.29976 0.22846 0.52711 0 0.24112-0.07597 0.43043-0.22846 0.5682-0.1525 0.13091-0.37467 0.19625-0.6658 0.19625h-0.64459zm-6.8087 0.14435h0.02067l0.6756 2.1495h-1.393zm-14.763 2.0463h0.67559c0.37431 0 0.63107 0.0586 0.7697 0.1757 0.13863 0.11023 0.20779 0.30291 0.20779 0.57847 0 0.22046-0.06915 0.38945-0.20779 0.50657-0.13863 0.11712-0.38858 0.1757-0.74903 0.1757h-0.69626z"/>
</g>
</svg>
