<svg xmlns="http://www.w3.org/2000/svg" height="21em" width="20em" version="1.1" viewBox="0 0 70.555553 74.083336">
<g transform="translate(0 -226.44)">
<path style="paint-order:markers fill stroke" d="m6.7002e-7 226.44h70.556v68.792l-35.278 5.3-35.278-5.29z" fill="#da2200"/>
<g aria-label="The. FirstAugust. Art." transform="matrix(.26458 0 0 .26458 -3.4905 250.07)" stroke="#000000" stroke-width="1px" fill="#000000">
<path d="m124.9 4.5563v1.5466h-9.12v38.453h-1.76v-38.453h-9.2267v-1.5467z"/>
<path d="m130.93 44.556h-1.7067v-39.946h1.7067v20.586q2.6667-5.2267 9.2267-5.2267 4.48 0 7.52 3.0933 3.0933 3.0933 3.0933 7.52v13.973h-1.7067v-13.973q0-3.7333-2.6133-6.4-2.6133-2.72-6.2933-2.72t-6.4533 2.72-2.7733 6.4z"/>
<path d="m168.62 45.196h-0.48q-5.0667 0-8.8533-3.7867-3.7333-3.84-3.7333-8.9067t3.7333-8.7467q3.7333-3.7333 9.2267-3.7333 5.4933 0 9.44 4.3733l-16.747 16.533q3.4667 2.7733 6.6667 2.7733t5.7067-1.44q2.56-1.4933 4.2133-3.9467v2.72q-3.7867 4.16-9.1733 4.16zm-0.59-23.68q-4.2133 0-7.52 3.3067-3.2533 3.2533-3.2533 7.52t2.8267 7.4667l15.52-15.413q-3.3067-2.88-7.5733-2.88z"/>
<path d="m183.45 44.93q-1.8133 0-1.8133-1.6533t1.8133-1.6533q1.8667 0 1.8667 1.6533t-1.8667 1.6533z"/>
<path d="m27.159 64.556h14.24v1.547h-12.48v21.653h10.4v1.5467h-10.4v15.253h-1.76z"/>
<path d="m48.342 80.61v23.95h-1.707v-23.95zm-0.853-5.867q-1.5467 0-1.5467-1.44t1.5467-1.44 1.5467 1.44-1.5467 1.44z"/>
<path d="m69.448 83.81q-2.3467-2.3467-5.1733-2.3467-2.8267 0-5.0133 2.1333-2.1333 2.1333-2.1333 4.96v16.003h-1.707v-24.004h1.7067v3.5733q0.96-1.8133 2.9867-2.9867 2.0267-1.1733 4.5333-1.1733 2.5067 0 4.8 1.7067z"/>
<path d="m79.189 81.41q-1.3867 0-2.4533 0.90667-1.0667 0.90667-1.0667 2.24t1.1733 2.4533q1.2267 1.12 2.88 2.08 1.7067 0.90667 3.4133 1.9733 1.7067 1.0667 2.88 2.72 1.2267 1.6533 1.2267 3.7867 0 3.1467-2.4 5.3867-2.3467 2.1867-5.7067 2.1867-2.1333 0-4-0.90667-1.8133-0.96-2.6667-2.5067v-2.56q2.0267 4.48 6.5067 4.48 2.7733 0 4.64-1.7067 1.92-1.7067 1.92-3.7867 0-2.1333-1.2267-3.5733-1.1733-1.44-2.88-2.4533t-3.4133-1.9733q-1.6533-1.0133-2.88-2.4-1.1733-1.44-1.1733-3.3067 0-1.92 1.4933-3.2 1.5467-1.3333 3.9467-1.3333t4.1067 1.8667v2.1867q-1.7067-2.56-4.32-2.56z"/>
<path d="m100.88 103.38v1.4933q-3.7867 0-6.4533-2.5067-2.664-2.55-2.664-6.497v-24.96h1.7067v9.7067h7.36v1.4933h-7.36v13.76q0 3.2533 2.1333 5.3867 2.1867 2.1333 5.28 2.1333z"/>
<path d="m123.46 63.596 20 40.96h-1.8667l-7.5733-15.253h-21.387l-7.4667 15.253h-1.6533zm-0.16 3.68-9.9733 20.48h20.053z"/>
<path d="m167.54 80.556h1.7067v24h-1.7067v-4.8533q-2.72 5.44-9.28 5.44-4.48 0-7.52-3.0933t-3.04-7.52v-13.978h1.7067v13.973q0 3.68 2.56 6.4 2.6133 2.72 6.2933 2.72t6.4533-2.72q2.8267-2.72 2.8267-6.4z"/>
<path d="m197.4 80.556h1.7067v21.76q0 6.1867-3.4133 9.76t-8.96 3.5733q-3.04 0-5.92-1.3867t-4.48-3.6267v-2.4533q1.3867 2.56 4.32 4.2667 2.9867 1.7067 6.08 1.7067 4.6933 0 7.68-3.2 2.9867-3.1467 2.9867-8.64v-3.5733q-1.44 2.9333-4.5333 4.6933t-6.4 1.76q-5.2267 0-8.96-3.68-3.7333-3.7333-3.7333-8.9067 0-5.1733 3.7333-8.8533 3.7333-3.7333 8.96-3.7333 3.4667 0 6.4533 1.76 3.04 1.7067 4.48 4.7467zm-21.92 12.053q0 4.5333 3.2533 7.84 3.3067 3.2533 7.7867 3.2533 4.5333 0 7.7333-3.2533 3.2-3.3067 3.2-7.84t-3.2-7.7867q-3.2-3.3067-7.7333-3.3067-4.48 0-7.7867 3.3067-3.2533 3.2533-3.2533 7.7867z"/>
<path d="m224.83 80.556h1.7067v24h-1.7067v-4.8533q-2.72 5.44-9.28 5.44-4.48 0-7.52-3.0933t-3.04-7.52v-13.978h1.7067v13.973q0 3.68 2.56 6.4 2.6133 2.72 6.2933 2.72t6.4533-2.72q2.8267-2.72 2.8267-6.4z"/>
<path d="m237.63 81.41q-1.3867 0-2.4533 0.90667-1.0667 0.90667-1.0667 2.24t1.1733 2.4533q1.2267 1.12 2.88 2.08 1.7067 0.90667 3.4133 1.9733 1.7067 1.0667 2.88 2.72 1.2267 1.6533 1.2267 3.7867 0 3.1467-2.4 5.3867-2.3467 2.1867-5.7067 2.1867-2.1333 0-4-0.90667-1.8133-0.96-2.6667-2.5067v-2.56q2.0267 4.48 6.5067 4.48 2.7733 0 4.64-1.7067 1.92-1.7067 1.92-3.7867 0-2.1333-1.2267-3.5733-1.1733-1.44-2.88-2.4533t-3.4133-1.9733q-1.6533-1.0133-2.88-2.4-1.1733-1.44-1.1733-3.3067 0-1.92 1.4933-3.2 1.5467-1.3333 3.9467-1.3333t4.1067 1.8667v2.1867q-1.7067-2.56-4.32-2.56z"/>
<path d="m259.32 103.38v1.4933q-3.7867 0-6.4533-2.5067-2.6667-2.56-2.6667-6.5067v-24.954h1.7067v9.7067h7.36v1.4933h-7.36v13.76q0 3.2533 2.1333 5.3867 2.1867 2.1333 5.28 2.1333z"/>
<path d="m264.03 104.93q-1.8133 0-1.8133-1.6533t1.8133-1.6533q1.8667 0 1.8667 1.6533t-1.8667 1.6533z"/>
<path d="m126.06 123.6 20 40.96h-1.8667l-7.5733-15.253h-21.387l-7.4667 15.253h-1.6533zm-0.16 3.68-9.9733 20.48h20.053z"/>
<path d="m164.86 143.81q-2.3467-2.3467-5.1733-2.3467-2.8267 0-5.0133 2.1333-2.1333 2.1333-2.1333 4.96v16h-1.7067v-24h1.7067v3.5733q0.96-1.8133 2.9867-2.9867 2.0267-1.1733 4.5333-1.1733 2.5067 0 4.8 1.7067z"/>
<path d="m177.97 163.38v1.4933q-3.7867 0-6.4533-2.5067-2.6667-2.56-2.6667-6.5067v-24.96h1.7067v9.7067h7.36v1.4933h-7.36v13.76q0 3.2533 2.1333 5.3867 2.1867 2.1333 5.28 2.1333z"/>
<path d="m182.67 164.93q-1.8133 0-1.8133-1.6533t1.8133-1.6533q1.8667 0 1.8667 1.6533t-1.8667 1.6533z"/>
</g>
</g>
</svg>
