<svg xmlns="http://www.w3.org/2000/svg" height="300pt" width="206.53pt" version="1.1" viewBox="0 0 36.429642 52.91716">
 <path d="m18.169-0.000051778c-0.065 0.0030979-0.13 0.013115-0.193 0.029637l-5.751 1.4665c-0.1664 0.042338-0.3183 0.12834-0.43982 0.24899l-2.5989 2.5832c-0.4036-0.9187-1.0938-1.7052-1.9952-2.2225-0.7409-0.4251-1.5689-0.637-2.3969-0.637-0.82793 0-1.6559 0.21184-2.3969 0.637-1.4816 0.8503-2.3968 2.4247-2.3968 4.1251 0.00000336 0.2525 0.10081 0.4946 0.2803 0.6733l3.486 3.4648-3.7533 22.382c-0.04844 0.28663 0.03739 0.57957 0.23311 0.79555l17.256 19.055c0.3808 0.42002 1.0437 0.42002 1.4245 0l17.257-19.042c0.19591-0.21587 0.28196-0.50882 0.23368-0.79555l-3.754-22.382 3.486-3.4644c0.18-0.1786 0.28-0.4208 0.28-0.6732 0-1.7006-0.915-3.2751-2.396-4.1251-0.741-0.4251-1.569-0.637-2.397-0.637-0.82781 0-1.6543 0.21197-2.3951 0.637-0.90189 0.51739-1.5928 1.3039-1.9969 2.2231l-2.599-2.5837c-0.121-0.1136-0.273-0.2066-0.439-0.2479l-5.751-1.4665c-0.093-0.023988-0.189-0.033901-0.285-0.029668zm0.047 1.935l5.2587 1.3421 3.6467 3.6237c0.000862 0.00103 0.0018 0.00207 0.0029 0.0031l3.618 3.5952v0.000568l3.706 22.113-16.234 17.928-16.233-17.928 3.707-22.113 3.6179-3.5956c0.000862-0.00103 0.0018-0.00207 0.0029-0.0031l3.6472-3.6237zm-13.422 1.437c0.49623 0 0.99182 0.12839 1.4374 0.38409 0.79392 0.45563 1.2502 1.2716 1.3543 2.1633l-2.7928 2.7752-2.7929-2.7757c0.1042-0.89148 0.56106-1.7072 1.3548-2.1628 0.4456-0.2557 0.94287-0.38409 1.4391-0.38409zm26.841 0c0.49614 0 0.99357 0.12847 1.4391 0.38409 0.79394 0.45546 1.2505 1.2712 1.3548 2.1628l-2.792 2.7757-2.793-2.7752c0.104-0.8917 0.56-1.7078 1.354-2.1633 0.446-0.2556 0.942-0.3841 1.438-0.3841zm-13.438 4.9692c-0.11571 0.00207-0.23008 0.02499-0.33759 0.067535l-1.9171 0.76371c-0.2859 0.11304-0.49985 0.35557-0.57519 0.65207l-3.834 15.245c-0.08156 0.32485 0.01442 0.6684 0.25277 0.90497l3.8342 3.8108c0.17939 0.1792 0.42307 0.28022 0.67742 0.28081h3.836c0.25435-0.000568 0.49803-0.10161 0.67742-0.28081l3.8342-3.8108c0.23836-0.23657 0.33433-0.58012 0.25277-0.90497l-3.834-15.245c-0.075-0.2962-0.289-0.5388-0.575-0.6516l-1.917-0.7638c-0.11891-0.047089-0.24611-0.070116-0.3741-0.067535zm0.01909 1.9791 1.106 0.43881 3.5837 14.248-3.1697 3.1504h-3.0423l-3.1692-3.1504 3.5854-14.248zm-7.6702 0.67496c-0.49651 0-0.99317 0.12751-1.4374 0.38242-0.8885 0.50985-1.4391 1.4552-1.4391 2.4748-0.0074 0.52614 0.41542 0.95878 0.9448 0.96638 0.54082 0.0083 0.98173-0.42886 0.97401-0.96638 0-0.34192 0.18007-0.65417 0.47802-0.82512 0.29794-0.17098 0.66147-0.17098 0.95941 0 0.29795 0.17095 0.4797 0.4832 0.4797 0.82512-0.02585 1.2958 1.943 1.2958 1.9171 0 0-1.0197-0.55062-1.965-1.4391-2.4748-0.44424-0.25491-0.9409-0.38242-1.4374-0.38242zm15.339 0c-0.49651 0-0.99317 0.12751-1.4374 0.38242-0.8885 0.50985-1.4391 1.4552-1.4391 2.4748-0.0074 0.52613 0.41542 0.95878 0.9448 0.96638 0.54015 0.0072 0.98002-0.42953 0.97232-0.96638 0-0.34192 0.18176-0.65417 0.4797-0.82512 0.29794-0.17098 0.66147-0.17098 0.95941 0 0.29794 0.17095 0.4797 0.4832 0.4797 0.82512-0.02597 1.2959 1.9431 1.2959 1.9171 0 0-1.0197-0.55062-1.965-1.4391-2.4748-0.44425-0.25491-0.94091-0.38242-1.4374-0.38242zm-7.6696 9.9808c-0.67146 0-1.3428 0.17228-1.9435 0.51696-1.2014 0.68939-1.9424 1.9675-1.9424 3.3463-0.0075 0.52527 0.41406 0.95754 0.94255 0.96637 0.54103 0.0083 0.9823-0.42863 0.97456-0.96637 0-0.70104 0.3744-1.346 0.98524-1.6966 0.61085-0.35052 1.3591-0.35052 1.97 0 0.61085 0.35051 0.98299 0.99556 0.98299 1.6966 0.000575 1.2711 1.92 1.2711 1.9194 0 0-1.3788-0.74324-2.6569-1.9447-3.3463-0.60071-0.34468-1.2726-0.51696-1.9441-0.51696z" stroke-width="1.0326" fill="#fffcff"/>
</svg>
