<svg xmlns="http://www.w3.org/2000/svg" height="196.31pt" width="425pt" version="1.1" viewBox="0 0 149.93057 69.253215">
  <g transform="translate(-52.304 -175.53)">
    <path d="m193.1 177.3v21.908h-54.302v11.951h-4.908v-7.9674h-7.3697v7.9674h-6.772v-16.929h8.7636v-6.9706h-16.53v23.9h-6.9716v24.896h-10.482v-29.875h10.557v-6.9716h-10.552v-12.945h-7.3687v12.945l-33.091 0.10037v6.8713h16.83v36.845h7.3686v-36.845h8.8922v36.845h46.733v-24.995h4.908v24.995h61.67v-65.725zm-15.734 28.88h15.734v29.675l-15.734-0.0992zm-15.066 0.19853v29.676h-15.734v-29.577zm-49.522 11.751h13.743v17.427h-13.743z"/>
  </g>
</svg>
