<?xml version="1.0" encoding="UTF-8" standalone="no"?>
<!-- Created with Inkscape (http://www.inkscape.org/) -->

<svg
   xmlns:dc="http://purl.org/dc/elements/1.1/"
   xmlns:cc="http://creativecommons.org/ns#"
   xmlns:rdf="http://www.w3.org/1999/02/22-rdf-syntax-ns#"
   xmlns:svg="http://www.w3.org/2000/svg"
   xmlns="http://www.w3.org/2000/svg"
   xmlns:sodipodi="http://sodipodi.sourceforge.net/DTD/sodipodi-0.dtd"
   xmlns:inkscape="http://www.inkscape.org/namespaces/inkscape"
   width="1200"
   height="1200"
   viewBox="0 0 1200 1200"
   id="svg2"
   version="1.1"
   inkscape:version="0.91 r13725"
   sodipodi:docname="cir.svg">
  <defs
     id="defs4" />
  <sodipodi:namedview
     id="base"
     pagecolor="#dcdcc8"
     bordercolor="#666666"
     borderopacity="1.0"
     inkscape:pageopacity="0"
     inkscape:pageshadow="2"
     inkscape:zoom="0.48083333"
     inkscape:cx="600"
     inkscape:cy="600"
     inkscape:document-units="px"
     inkscape:current-layer="layer1"
     showgrid="true"
     inkscape:showpageshadow="false"
     borderlayer="true"
     units="px"
     inkscape:window-width="1366"
     inkscape:window-height="743"
     inkscape:window-x="0"
     inkscape:window-y="0"
     inkscape:window-maximized="1"
     objecttolerance="20"
     inkscape:snap-path-clip="true"
     inkscape:snap-path-mask="true"
     gridtolerance="10"
     inkscape:snap-perpendicular="true"
     inkscape:snap-tangential="true">
    <inkscape:grid
       type="xygrid"
       id="grid3338"
       color="#ffffff"
       opacity="0.1254902"
       empcolor="#ffffff"
       empopacity="0.25098039"
       spacingx="10"
       spacingy="10" />
  </sodipodi:namedview>
  <metadata
     id="metadata7">
    <rdf:RDF>
      <cc:Work
         rdf:about="">
        <dc:format>image/svg+xml</dc:format>
        <dc:type
           rdf:resource="http://purl.org/dc/dcmitype/StillImage" />
        <dc:title />
      </cc:Work>
    </rdf:RDF>
  </metadata>
  <g
     inkscape:label="Layer 1"
     inkscape:groupmode="layer"
     id="layer1"
     transform="translate(0,147.63784)">
    <path
       inkscape:connector-curvature="0"
       style="fill:#f9ce1d"
       d="m 677.1952,900.89389 c -50.2784,-29.094 -94.4807,-52.8982 -98.2277,-52.8982 -3.7469,0 -14.4232,3.9552 -23.7252,8.7894 -24.9543,12.9685 -47.7887,10.9905 -64.4182,-5.5801 -14.0971,-14.0473 -16.7873,-22.6648 -14.8762,-47.65238 1.264,-16.52402 -7.6449,-23.17942 -105.9003,-79.11411 -47.0894,-26.80694 -87.2748,-51.28979 -89.3007,-54.40622 -2.0257,-3.11651 5.1984,-27.23214 16.0536,-53.59038 10.8553,-26.35824 21.2731,-59.83863 23.1507,-74.40089 1.8777,-14.56227 6.2927,-42.36296 9.8114,-61.77931 7.9989,-44.13915 -1.4012,-122.40473 -22.0981,-183.99088 -7.9075,-23.52956 -14.3771,-46.14986 -14.3771,-50.26735 0,-4.11745 38.6901,-29.49239 85.9782,-56.3888 72.036,-40.97252 88.5527,-48.18016 101.855,-44.4477 8.7321,2.45018 31.3611,4.71365 50.2866,5.02996 32.2538,0.53895 35.6253,-0.74652 53.8007,-20.51403 13.3657,-14.53637 20.6477,-29.44148 23.4361,-47.970048 l 4.0454,-26.88088 89.5084,-51.2348802 89.5085,-51.2349598 12.2966,15.36682 c 17.5006,21.87018 64.4412,143.098848 82.2667,212.461778 44.5056,173.17866 44.429,361.45719 -0.2125,526.59511 -28.0742,103.84975 -89.3459,242.40645 -108.5879,245.55635 -4.8712,0.7974 -49.9938,-22.3543 -100.2721,-51.4483 z"
       id="path3379" />
    <path
       inkscape:connector-curvature="0"
       style="fill:#ff9800"
       d="m 505.23608,822.47039 c -68.5228,-92.67333 -170.9727,-159.74213 -272.9771,-178.70433 -19.7958,-3.6799 -42.6349,-8.551 -50.7538,-10.8244 l -14.7616,-4.1339 -1.6091,-103.15197 -1.6093,-103.15211 20.2721,-15.40752 c 11.9125,-9.05385 24.4726,-26.36766 30.4584,-41.98565 9.5865,-25.01297 9.5993,-28.11 0.2155,-52.59325 -5.795,-15.12064 -18.4947,-32.49392 -30.3253,-41.48564 l -20.3546,-15.47043 0,-99.00382 c 0,-72.083622 2.0069,-100.633602 7.3808,-104.997872 4.9247,-3.99953 27.0285,-4.17458 66.4272,-0.526 235.2652,21.78756 454.79107,122.009782 622.09587,284.011082 86.0385,83.31128 183.63845,209.77915 176.39995,228.57548 -1.6595,4.30922 -42.50295,30.84078 -90.76335,58.9591 -48.2603,28.1183 -91.2373,53.4164 -95.5046,56.2181 -4.2672,2.8017 -8.5518,16.1895 -9.5211,29.7504 -3.3436,46.7755 -46.4338,68.2459 -90.9401,45.3121 -15.514,-7.9942 -19.7002,-6.2484 -112.8737,47.0699 -53.21917,30.45473 -98.89497,55.37223 -101.50157,55.37223 -2.6068,0 -15.9963,-15.2243 -29.7546,-33.8315 z"
       id="path3357" />
    <path
       inkscape:connector-curvature="0"
       id="path3355"
       d="M 381.55719,892.17203 C 266.83139,646.39171 257.77509,348.69189 357.23279,92.5762 c 24.1641,-62.2256 58.3782,-128.56481 66.3066,-128.56481 3.6302,0 48.4207,23.82915 99.5345,52.95368 51.1137,29.12455 96.9409,52.95371 101.8381,52.95371 4.8972,0 12.2117,-3.97152 16.2545,-8.82562 4.1251,-4.9527 16.9963,-8.82561 29.3311,-8.82561 29.2727,0 44.3155,16.4986 43.0848,47.2543 -1.081,27.00961 -2.501,25.82527 101.7708,84.88072 38.9706,22.07138 76.5262,43.59319 83.457,47.82626 l 12.6012,7.69646 -19.3215,47.75047 c -10.627,26.26273 -23.9341,71.41336 -29.5716,100.33472 0,0 -9.424,76.43685 -5.1813,127.3802 -0.5279,36.10852 14.3867,71.35263 25.6805,101.71635 6.6233,17.79832 12.0438,35.4255 12.0453,39.1715 0,3.74606 -36.986,28.35941 -82.1949,54.69634 l -82.1978,47.88545 -29.2322,-9.52751 c -23.5126,-7.66344 -33.9408,-8.26406 -53.2986,-3.07002 -31.1263,8.35181 -58.1736,35.65297 -66.1666,66.78774 -3.487,13.5833 -7.2918,27.5852 -8.4552,31.1154 -2.1059,6.3911 -155.8881,96.547 -164.6836,96.547 -2.5403,0 -14.8149,-21.8434 -27.2767,-48.5409 z"
       style="fill:#673ab7"
       sodipodi:nodetypes="sssssssssscsccccscssssss" />
    <path
       inkscape:connector-curvature="0"
       id="path3353"
       d="M 883.70678,840.2627 C 727.64438,813.2468 556.03431,738.34652 430.15731,642.30829 342.98171,575.79738 229.41701,450.81395 181.60101,368.76017 l -16.1456,-27.70637 22.5614,-15.4913 c 12.4089,-8.5202 57.1038,-35.76764 99.322,-60.5498 l 76.7602,-45.05849 1.1514,-26.47684 c 0.8866,-20.38852 4.6961,-29.52099 16.567,-39.71527 17.825,-15.30769 48.2435,-17.45066 65.2941,-4.59991 6.3037,4.75112 15.0793,8.72264 19.5011,8.82562 4.4217,0.10299 48.9194,-23.64206 98.88391,-52.76661 49.96439,-29.12453 94.82166,-52.95368 99.68296,-52.95368 4.8613,0 16.9803,11.25264 26.9312,25.00591 71.9257,99.40956 165.284,158.99118 291.9747,186.33935 l 47.23712,10.19688 1.6111,103.6477 1.611,103.64778 -24.665,22.92581 c -22.18912,20.62467 -24.94341,26.2733 -27.44032,56.27559 -2.7588,33.15056 -2.6124,33.51216 24.53002,60.5585 l 27.3055,27.20906 0,102.19125 0,102.19145 -42.80862,-0.4755 c -23.54459,-0.2612 -72.03649,-5.5347 -107.75959,-11.7188 z"
       style="fill:#2196f3"
       sodipodi:nodetypes="csscsscsssssssscccssscccccc" />
    <path
       inkscape:connector-curvature="0"
       id="path3351"
       d="m 190.56487,837.69761 c -5.3783,-5.3748 -7.3808,-37.25961 -7.3808,-117.51081 l 0,-110.1345 -19.9716,-12.2994 c -26.6404,-16.4065 -37.1274,-41.4246 -27.2871,-65.097 4.0236,-9.6796 16.3028,-23.1339 27.2871,-29.8986 l 19.9716,-12.29939 0,-114.1411 c 0,-130.40151 -7.2316,-115.95181 61.788,-123.46231 104.1219,-11.3302 209.1276,-67.8916 284.178,-153.072701 18.3548,-20.8326 36.8878,-37.8775 41.1842,-37.8775 10.2753,0 155.2032,83.381301 172.3137,99.137101 7.6423,7.0372 13.2949,19.1957 13.3075,28.6241 0.03,23.6017 18.9538,51.0988 42.9819,62.4605 25.9249,12.2586 39.0453,12.33 69.0284,0.3754 l 23.7018,-9.45 87.1297,49.77951 c 58.95743,33.6839 87.68193,53.4224 88.83783,61.0459 2.5848,17.0469 -63.1529,102.8142 -133.91623,174.71959 -186.3948,189.4026 -414.4521,293.88471 -682.6315,312.74071 -38.9723,2.7403 -55.1098,1.7698 -60.5225,-3.6398 z"
       style="fill:#4caf50"
       sodipodi:nodetypes="cscssscssssscsscsssscc" />
    <path
       inkscape:connector-curvature="0"
       id="path3349"
       d="m 540.94924,787.82045 c -72.5904,-42.4086 -87.0933,-53.1602 -87.0933,-64.5669 0,-22.505 -14.8651,-51.059 -35.6563,-68.4918 -17.2069,-14.4273 -23.1377,-16.0518 -49.5162,-13.5622 -16.4824,1.5555 -37.0946,4.6958 -45.8049,6.9782 -12.8172,3.3587 -27.4538,-2.5056 -76.7603,-30.7554 -76.0612,-43.57857 -111.1126,-65.55841 -111.1126,-69.67588 0,-13.68512 82.6291,-118.5814 139.2244,-176.74314 174.6847,-179.5196 444.8881,-301.379803 675.14174,-304.484803 l 62.47202,-0.8425 1.6046,113.536103 1.6046,113.53599 20.208,11.88093 c 39.9453,23.48485 39.5838,69.54485 -0.7315,93.24739 l -19.7334,11.60181 0,111.78254 c 0,128.65116 4.2007,119.94016 -60.91262,126.31496 -104.8079,10.2611 -219.51044,76.0784 -300.95494,172.69064 -8.8661,10.5171 -18.0925,18.9676 -20.503,18.7788 -2.4107,-0.1889 -43.5751,-23.2398 -91.4763,-51.22474 z"
       style="fill:#f44336"
       sodipodi:nodetypes="ssssssssscccsscssscs" />
  </g>
</svg>
