<?xml version="1.0" encoding="UTF-8" standalone="no"?>
<!-- Created with Inkscape (http://www.inkscape.org/) -->

<svg
   xmlns:dc="http://purl.org/dc/elements/1.1/"
   xmlns:cc="http://creativecommons.org/ns#"
   xmlns:rdf="http://www.w3.org/1999/02/22-rdf-syntax-ns#"
   xmlns:svg="http://www.w3.org/2000/svg"
   xmlns="http://www.w3.org/2000/svg"
   xmlns:sodipodi="http://sodipodi.sourceforge.net/DTD/sodipodi-0.dtd"
   xmlns:inkscape="http://www.inkscape.org/namespaces/inkscape"
   width="1200"
   height="1200"
   viewBox="0 0 1200 1200"
   id="svg2"
   version="1.1"
   inkscape:version="0.91 r13725"
   sodipodi:docname="cir4.svg">
  <defs
     id="defs4" />
  <sodipodi:namedview
     id="base"
     pagecolor="#dcdcc8"
     bordercolor="#666666"
     borderopacity="1.0"
     inkscape:pageopacity="0"
     inkscape:pageshadow="2"
     inkscape:zoom="0.48083333"
     inkscape:cx="600"
     inkscape:cy="600"
     inkscape:document-units="px"
     inkscape:current-layer="layer1"
     showgrid="true"
     inkscape:showpageshadow="false"
     borderlayer="true"
     units="px"
     inkscape:window-width="1366"
     inkscape:window-height="743"
     inkscape:window-x="0"
     inkscape:window-y="0"
     inkscape:window-maximized="1"
     objecttolerance="20"
     inkscape:snap-path-clip="true"
     inkscape:snap-path-mask="true"
     gridtolerance="10"
     inkscape:snap-perpendicular="true"
     inkscape:snap-tangential="true">
    <inkscape:grid
       type="xygrid"
       id="grid3338"
       color="#ffffff"
       opacity="0.1254902"
       empcolor="#ffffff"
       empopacity="0.25098039"
       spacingx="10"
       spacingy="10" />
  </sodipodi:namedview>
  <metadata
     id="metadata7">
    <rdf:RDF>
      <cc:Work
         rdf:about="">
        <dc:format>image/svg+xml</dc:format>
        <dc:type
           rdf:resource="http://purl.org/dc/dcmitype/StillImage" />
        <dc:title />
      </cc:Work>
    </rdf:RDF>
  </metadata>
  <g
     inkscape:label="Layer 1"
     inkscape:groupmode="layer"
     id="layer1"
     transform="translate(0,147.63784)">
    <path
       inkscape:connector-curvature="0"
       id="path3353"
       d="m -3340.6615,735.6208 c -156.0624,-27.0159 -327.6725,-101.91624 -453.5495,-197.95444 -87.1756,-66.5109 -200.7403,-191.49433 -248.5563,-273.54811 l -16.1456,-27.70637 22.5614,-15.4913 c 12.4089,-8.52019 57.1038,-35.76764 99.322,-60.5498 l 76.7602,-45.05849 1.1514,-26.476841 c 0.8866,-20.38855 4.6961,-29.52095 16.567,-39.71525 17.825,-15.3077 48.2435,-17.4507 65.2941,-4.5999 6.3037,4.7511 15.0793,8.7226 19.5011,8.82561 4.4217,0.10299 48.9194,-23.64211 98.8839,-52.76660995 49.9644,-29.12460005 94.8217,-52.95370005 99.683,-52.95370005 4.8613,0 16.9803,11.2526 26.9312,25.0059 71.9257,99.4096 165.284,158.991191 291.9747,186.339361 l 47.237,10.19688 1.6113,103.6477 1.611,103.64778 -24.665,22.92582 c -22.1892,20.62466 -24.9434,26.27329 -27.4404,56.27558 -2.7588,33.15057 -2.6124,33.51216 24.5301,60.55854 l 27.3055,27.209 0,102.1913 0,102.19144 -42.8087,-0.4755 c -23.5445,-0.2612 -72.0365,-5.5347 -107.7596,-11.7188 z"
       style="fill:#2196f3"
       sodipodi:nodetypes="csscsscsssssssscccssscccccc" />
    <path
       inkscape:connector-curvature="0"
       id="path3351"
       d="m 58.273725,672.15547 c -5.3783,-5.3748 -7.3807,-37.2597 -7.3807,-117.51084 l 0,-110.1345 -19.9717,-12.29939 c -26.6403997,-16.4065 -37.1273997,-41.4246 -27.2870997,-65.097 4.0236,-9.6796 16.3027997,-23.1339 27.2870997,-29.8986 l 19.9717,-12.29939 0,-114.1411 c 0,-130.401506 -7.2317,-115.95181 61.788005,-123.46231 104.1219,-11.330196 209.1276,-67.891596 284.1779,-153.07268 18.3548,-20.8326 36.8878,-37.8775 41.1842,-37.8775 10.2753,0 155.2032,83.381284 172.3137,99.137084 7.6423,7.0372 13.2949,19.1957 13.3075,28.6241 0.03,23.6017 18.9538,51.0988 42.9819,62.460496 25.9249,12.2586 39.0453,12.33 69.0284,0.3754 l 23.7018,-9.449996 87.1297,49.779506 c 58.95744,33.6839 87.68194,53.4224 88.83784,61.0459 2.5848,17.0469 -63.1529,102.8142 -133.91624,174.71959 -186.3948,189.40259 -414.4521,293.88473 -682.6315,312.74073 -38.972305,2.7403 -55.109805,1.7698 -60.522505,-3.6398 z"
       style="fill:#4caf50"
       sodipodi:nodetypes="cscssscssssscsscsssscc" />
  </g>
</svg>
