<?xml version="1.0" encoding="UTF-8" standalone="no"?>
<!-- Created with Inkscape (http://www.inkscape.org/) -->

<svg
   xmlns:dc="http://purl.org/dc/elements/1.1/"
   xmlns:cc="http://creativecommons.org/ns#"
   xmlns:rdf="http://www.w3.org/1999/02/22-rdf-syntax-ns#"
   xmlns:svg="http://www.w3.org/2000/svg"
   xmlns="http://www.w3.org/2000/svg"
   xmlns:sodipodi="http://sodipodi.sourceforge.net/DTD/sodipodi-0.dtd"
   xmlns:inkscape="http://www.inkscape.org/namespaces/inkscape"
   width="1200"
   height="1200"
   viewBox="0 0 1200 1200"
   id="svg2"
   version="1.1"
   inkscape:version="0.91 r13725"
   sodipodi:docname="cir6.svg">
  <defs
     id="defs4" />
  <sodipodi:namedview
     id="base"
     pagecolor="#dcdcc8"
     bordercolor="#666666"
     borderopacity="1.0"
     inkscape:pageopacity="0"
     inkscape:pageshadow="2"
     inkscape:zoom="0.19666667"
     inkscape:cx="600"
     inkscape:cy="600"
     inkscape:document-units="px"
     inkscape:current-layer="layer1"
     showgrid="true"
     inkscape:showpageshadow="false"
     borderlayer="true"
     units="px"
     inkscape:window-width="693"
     inkscape:window-height="406"
     inkscape:window-x="293"
     inkscape:window-y="238"
     inkscape:window-maximized="0"
     objecttolerance="20"
     inkscape:snap-path-clip="true"
     inkscape:snap-path-mask="true"
     gridtolerance="10"
     inkscape:snap-perpendicular="true"
     inkscape:snap-tangential="true"
     inkscape:snap-bbox="true">
    <inkscape:grid
       type="xygrid"
       id="grid3338"
       color="#ffffff"
       opacity="0.1254902"
       empcolor="#ffffff"
       empopacity="0.25098039"
       spacingx="10"
       spacingy="10" />
  </sodipodi:namedview>
  <metadata
     id="metadata7">
    <rdf:RDF>
      <cc:Work
         rdf:about="">
        <dc:format>image/svg+xml</dc:format>
        <dc:type
           rdf:resource="http://purl.org/dc/dcmitype/StillImage" />
        <dc:title />
      </cc:Work>
    </rdf:RDF>
  </metadata>
  <g
     inkscape:label="Layer 1"
     inkscape:groupmode="layer"
     id="layer1"
     transform="translate(0,147.63784)">
    <path
       inkscape:connector-curvature="0"
       style="fill:#ff9800"
       d="m -4596.3516,706.17923 c -68.5228,-92.67334 -170.9727,-159.74214 -272.9771,-178.70434 -19.7958,-3.6799 -42.6349,-8.551 -50.7538,-10.8244 l -14.7616,-4.1339 -1.6091,-103.15202 -1.6093,-103.15209 20.2721,-15.4075 c 11.9125,-9.0539 24.4726,-26.3677 30.4584,-41.9857 9.5865,-25.0129 9.5993,-28.11 0.2155,-52.5932 -5.795,-15.12061 -18.4947,-32.49391 -30.3253,-41.48561 l -20.3546,-15.4705 0,-99.003801 c 0,-72.08359 2.0069,-100.63359 7.3808,-104.99789 4.9247,-3.9995 27.0285,-4.1745 66.4272,-0.526 235.2652,21.7876 454.7911,122.00979 622.0959,284.011101 86.0383,83.3113 183.6382,209.77919 176.3998,228.57549 -1.6595,4.3092 -42.5029,30.8408 -90.7634,58.95912 -48.2601,28.1183 -91.2371,53.4164 -95.5044,56.2181 -4.2672,2.8017 -8.5518,16.1895 -9.5211,29.7504 -3.3436,46.7755 -46.4338,68.2459 -90.9401,45.3121 -15.514,-7.9942 -19.7002,-6.2484 -112.8737,47.0699 -53.2192,30.45474 -98.895,55.37224 -101.5016,55.37224 -2.6068,0 -15.9963,-15.2243 -29.7546,-33.8315 z"
       id="path3357" />
    <path
       inkscape:connector-curvature="0"
       id="path3355"
       d="M 218.84531,892.17208 C 104.11952,646.39167 95.063221,348.69185 194.52091,92.576148 218.68501,30.350547 252.8991,-35.988663 260.8275,-35.988663 c 3.6302,0 48.4207,23.82915 99.5345,52.95368 51.1137,29.12455 96.9409,52.95371 101.8381,52.95371 4.8972,0 12.2117,-3.97152 16.2545,-8.82562 4.1251,-4.9527 16.9963,-8.82561 29.3311,-8.82561 29.2727,0 44.3155,16.4986 43.0848,47.254307 -1.081,27.009616 -2.501,25.825276 101.7708,84.880726 38.9706,22.07138 76.5262,43.59319 83.457,47.82626 l 12.6012,7.69646 -19.3215,47.75047 c -10.627,26.26273 -23.9341,71.41336 -29.5716,100.33472 0,0 -9.424,76.43685 -5.1813,127.3802 -0.5279,36.10852 14.3867,71.35263 25.6805,101.71635 6.6233,17.79832 12.0438,35.4255 12.0453,39.1715 0,3.74606 -36.986,28.35941 -82.1949,54.69634 l -82.1978,47.88545 -29.2322,-9.52751 c -23.5126,-7.66344 -33.9408,-8.26406 -53.2986,-3.07002 -31.1263,8.35181 -58.1736,35.65297 -66.1666,66.78773 -3.487,13.5833 -7.2918,27.5852 -8.4552,31.1154 -2.1059,6.3911 -155.8881,96.5471 -164.6836,96.5471 -2.5403,0 -14.8149,-21.8434 -27.27669,-48.5409 z"
       style="fill:#673ab7"
       sodipodi:nodetypes="sssssssssscsccccscssssss" />
    <path
       inkscape:connector-curvature="0"
       id="path3353"
       d="m -3340.6615,735.6208 c -156.0624,-27.0159 -327.6725,-101.91624 -453.5495,-197.95444 -87.1756,-66.5109 -200.7403,-191.49433 -248.5563,-273.54811 l -16.1456,-27.70637 22.5614,-15.4913 c 12.4089,-8.52019 57.1038,-35.76764 99.322,-60.5498 l 76.7602,-45.05849 1.1514,-26.476841 c 0.8866,-20.38855 4.6961,-29.52095 16.567,-39.71525 17.825,-15.3077 48.2435,-17.4507 65.2941,-4.5999 6.3037,4.7511 15.0793,8.7226 19.5011,8.82561 4.4217,0.10299 48.9194,-23.64211 98.8839,-52.76660995 49.9644,-29.12460005 94.8217,-52.95370005 99.683,-52.95370005 4.8613,0 16.9803,11.2526 26.9312,25.0059 71.9257,99.4096 165.284,158.991191 291.9747,186.339361 l 47.237,10.19688 1.6113,103.6477 1.611,103.64778 -24.665,22.92582 c -22.1892,20.62466 -24.9434,26.27329 -27.4404,56.27558 -2.7588,33.15057 -2.6124,33.51216 24.5301,60.55854 l 27.3055,27.209 0,102.1913 0,102.19144 -42.8087,-0.4755 c -23.5445,-0.2612 -72.0365,-5.5347 -107.7596,-11.7188 z"
       style="fill:#2196f3"
       sodipodi:nodetypes="csscsscsssssssscccssscccccc" />
    <path
       inkscape:connector-curvature="0"
       id="path3351"
       d="m -3125.3498,821.31184 c -5.3783,-5.3748 -7.3807,-37.2597 -7.3807,-117.51084 l 0,-110.1345 -19.9717,-12.29939 c -26.6404,-16.4065 -37.1274,-41.4246 -27.2871,-65.097 4.0236,-9.6796 16.3028,-23.1339 27.2871,-29.8986 l 19.9717,-12.29939 0,-114.1411 c 0,-130.40151 -7.2317,-115.95181 61.788,-123.46231 104.1219,-11.3302 209.1276,-67.8916 284.1779,-153.072691 18.3548,-20.8326 36.8878,-37.8775 41.1842,-37.8775 10.2753,0 155.2032,83.381291 172.3137,99.137091 7.6423,7.0372 13.2949,19.1957 13.3075,28.6241 0.03,23.6017 18.9538,51.0988 42.9819,62.4605 25.9249,12.2586 39.0453,12.33 69.0284,0.3754 l 23.7018,-9.45 87.1297,49.77951 c 58.9574,33.6839 87.6819,53.4224 88.8378,61.0459 2.5848,17.0469 -63.1529,102.8142 -133.9162,174.71959 -186.3948,189.40259 -414.4521,293.88473 -682.6315,312.74073 -38.9723,2.7403 -55.1098,1.7698 -60.5225,-3.6398 z"
       style="fill:#4caf50"
       sodipodi:nodetypes="cscssscssssscsscsssscc" />
  </g>
</svg>
