<?xml version="1.0" encoding="UTF-8" standalone="no"?>
<!-- Created with Inkscape (http://www.inkscape.org/) -->

<svg
   xmlns:dc="http://purl.org/dc/elements/1.1/"
   xmlns:cc="http://creativecommons.org/ns#"
   xmlns:rdf="http://www.w3.org/1999/02/22-rdf-syntax-ns#"
   xmlns:svg="http://www.w3.org/2000/svg"
   xmlns="http://www.w3.org/2000/svg"
   xmlns:sodipodi="http://sodipodi.sourceforge.net/DTD/sodipodi-0.dtd"
   xmlns:inkscape="http://www.inkscape.org/namespaces/inkscape"
   width="458.40964"
   height="458.40961"
   viewBox="0 0 458.40964 458.40961"
   id="svg2"
   version="1.1"
   inkscape:version="0.91 r13725"
   sodipodi:docname="cq0-ex.svg">
  <defs
     id="defs4" />
  <sodipodi:namedview
     id="base"
     pagecolor="#dcdcc8"
     bordercolor="#666666"
     borderopacity="1.0"
     inkscape:pageopacity="0"
     inkscape:pageshadow="2"
     inkscape:zoom="0.38774949"
     inkscape:cx="845.68746"
     inkscape:cy="226.6896"
     inkscape:document-units="px"
     inkscape:current-layer="layer1"
     showgrid="false"
     inkscape:showpageshadow="false"
     borderlayer="true"
     units="px"
     inkscape:window-width="1366"
     inkscape:window-height="743"
     inkscape:window-x="0"
     inkscape:window-y="0"
     inkscape:window-maximized="1"
     objecttolerance="20"
     inkscape:snap-path-clip="true"
     inkscape:snap-path-mask="true"
     gridtolerance="10"
     inkscape:snap-perpendicular="true"
     inkscape:snap-tangential="true"
     inkscape:object-paths="true"
     inkscape:snap-intersection-paths="true"
     inkscape:object-nodes="true"
     inkscape:snap-midpoints="true"
     inkscape:snap-smooth-nodes="true"
     inkscape:snap-center="true"
     inkscape:snap-object-midpoints="true"
     inkscape:snap-bbox="true"
     inkscape:bbox-paths="true"
     inkscape:bbox-nodes="true"
     inkscape:snap-bbox-edge-midpoints="true"
     inkscape:snap-bbox-midpoints="true"
     fit-margin-top="0"
     fit-margin-left="0"
     fit-margin-right="0"
     fit-margin-bottom="0">
    <inkscape:grid
       type="xygrid"
       id="grid3338"
       color="#ffffff"
       opacity="0.1254902"
       empcolor="#ffffff"
       empopacity="0.25098039"
       spacingx="10"
       spacingy="10"
       originx="-370.79518"
       originy="-370.7952" />
  </sodipodi:namedview>
  <metadata
     id="metadata7">
    <rdf:RDF>
      <cc:Work
         rdf:about="">
        <dc:format>image/svg+xml</dc:format>
        <dc:type
           rdf:resource="http://purl.org/dc/dcmitype/StillImage" />
        <dc:title></dc:title>
      </cc:Work>
    </rdf:RDF>
  </metadata>
  <g
     inkscape:label="Layer 1"
     inkscape:groupmode="layer"
     id="layer1"
     transform="translate(-370.79518,-223.15736)">
    <path
       style="fill:#f9ce1d;fill-opacity:1;stroke:none;stroke-width:12.5;stroke-linejoin:round;stroke-miterlimit:4;stroke-dasharray:none;stroke-opacity:1"
       d="m 1633.9433,763.48182 66.167,66.3851 a 51.212512,51.212512 0 0 1 72.4252,0.11922 51.212512,51.212512 0 0 1 -0.1193,72.42532 l 66.2976,66.51613 a 289.88213,289.88213 0 0 1 204.988,-84.69243 l 0.1577,-96.63693 a 48.313696,48.313696 0 0 0 0.089,0.004 48.313696,48.313696 0 0 0 48.404,-48.22361 48.313696,48.313696 0 0 0 -48.2236,-48.40398 48.313696,48.313696 0 0 0 -0.1081,0.004 l 0.1577,-96.63159 a 579.76432,579.76432 0 0 0 -410.2356,169.13477 z"
       id="path3367"
       inkscape:connector-curvature="0"
       inkscape:transform-center-x="180.07512"
       inkscape:transform-center-y="-392.4743" />
    <path
       style="fill:#8bc34a;fill-opacity:1;stroke:none;stroke-width:12.5;stroke-linejoin:round;stroke-miterlimit:4;stroke-dasharray:none;stroke-opacity:1"
       d="m 839.9603,350.89456 -0.154,93.34364 a 51.002216,51.002216 0 0 1 50.9181,51.0862 51.002216,51.002216 0 0 1 -51.0861,50.91811 l -0.1541,93.52775 a 288.69173,288.69173 0 0 1 203.9936,84.71283 l 68.1631,-67.94067 a 48.115296,48.115296 0 0 0 0.06,0.0661 48.115296,48.115296 0 0 0 68.0455,0.1271 48.115296,48.115296 0 0 0 0.1271,-68.04536 48.115296,48.115296 0 0 0 -0.076,-0.0764 l 68.1567,-67.93445 A 577.3836,577.3836 0 0 0 839.9603,350.89456 Z"
       id="path4134"
       inkscape:connector-curvature="0"
       inkscape:transform-center-x="-204.71071"
       inkscape:transform-center-y="-390.58851" />
    <path
       inkscape:transform-center-y="-392.47446"
       inkscape:transform-center-x="180.073"
       inkscape:connector-curvature="0"
       id="path4156"
       d="m 1450.0695,-250.0518 -66.3851,66.16693 a 51.212512,51.212512 0 0 1 -0.1192,72.42529 51.212512,51.212512 0 0 1 -72.4255,-0.1192 l -66.5162,66.297505 a 289.88213,289.88213 0 0 1 84.6924,204.987895 l 96.6369,0.1577 a 48.313696,48.313696 0 0 0 0,0.089 48.313696,48.313696 0 0 0 48.2237,48.404 48.313696,48.313696 0 0 0 48.404,-48.2236 48.313696,48.313696 0 0 0 0,-0.1081 l 96.632,0.1577 a 579.76432,579.76432 0 0 0 -169.143,-410.23552 z"
       style="fill:#009688;fill-opacity:1;stroke:none;stroke-width:12.5;stroke-linejoin:round;stroke-miterlimit:4;stroke-dasharray:none;stroke-opacity:1" />
    <path
       inkscape:transform-center-y="-390.58849"
       inkscape:transform-center-x="-204.71069"
       inkscape:connector-curvature="0"
       id="path4158"
       d="m 2472.1416,551.7359 -93.3439,-0.15393 a 51.002216,51.002216 0 0 1 -51.0858,50.91807 51.002216,51.002216 0 0 1 -50.9184,-51.08616 l -93.528,-0.15417 a 288.69173,288.69173 0 0 1 -84.7129,203.99352 l 67.9409,68.16319 a 48.115296,48.115296 0 0 0 -0.066,0.0599 48.115296,48.115296 0 0 0 -0.1271,68.04552 48.115296,48.115296 0 0 0 68.0455,0.12713 48.115296,48.115296 0 0 0 0.076,-0.0756 l 67.9341,68.1568 a 577.3836,577.3836 0 0 0 169.7851,-407.99414 z"
       style="fill:#2196f3;fill-opacity:1;stroke:none;stroke-width:12.5;stroke-linejoin:round;stroke-miterlimit:4;stroke-dasharray:none;stroke-opacity:1" />
    <path
       style="fill:#3f51b5;fill-opacity:1;stroke:none;stroke-width:12.5;stroke-linejoin:round;stroke-miterlimit:4;stroke-dasharray:none;stroke-opacity:1"
       d="m 2136.1059,375.92344 -66.167,-66.38512 a 51.212512,51.212512 0 0 1 -72.4253,-0.11922 51.212512,51.212512 0 0 1 0.1192,-72.42529 l -66.2975,-66.51612 a 289.88213,289.88213 0 0 1 -204.988,84.69242 l -0.1577,96.63694 a 48.313696,48.313696 0 0 0 -0.089,-0.004 48.313696,48.313696 0 0 0 -48.4041,48.22357 48.313696,48.313696 0 0 0 48.2237,48.40399 48.313696,48.313696 0 0 0 0.1081,-0.004 l -0.1577,96.63221 A 579.76432,579.76432 0 0 0 2136.1063,375.9234 Z"
       id="path4162"
       inkscape:connector-curvature="0"
       inkscape:transform-center-x="180.07504"
       inkscape:transform-center-y="-392.47454" />
    <path
       style="fill:#e91e63;fill-opacity:1;stroke:none;stroke-width:12.5;stroke-linejoin:round;stroke-miterlimit:4;stroke-dasharray:none;stroke-opacity:1"
       d="m 1671.0202,588.14616 0.1539,-93.34365 a 51.002216,51.002216 0 0 1 -50.9181,-51.08624 51.002216,51.002216 0 0 1 51.0862,-50.91811 l 0.1542,-93.52774 a 288.69173,288.69173 0 0 1 -203.9935,-84.71291 l -68.1632,67.94076 a 48.115296,48.115296 0 0 0 -0.06,-0.0661 48.115296,48.115296 0 0 0 -68.0457,-0.12711 48.115296,48.115296 0 0 0 -0.1271,68.04538 48.115296,48.115296 0 0 0 0.076,0.0761 l -68.1568,67.93435 a 577.3836,577.3836 0 0 0 407.9942,169.78478 z"
       id="path4164"
       inkscape:connector-curvature="0"
       inkscape:transform-center-x="-204.71061"
       inkscape:transform-center-y="-390.58856" />
    <path
       inkscape:transform-center-y="-392.47438"
       inkscape:transform-center-x="180.07512"
       inkscape:connector-curvature="0"
       id="path4168"
       d="m 1794.557,164.27759 66.3851,-66.166928 a 51.212512,51.212512 0 0 1 0.1193,-72.4253 51.212512,51.212512 0 0 1 72.4253,0.11922 l 66.516,-66.297499 a 289.88213,289.88213 0 0 1 -84.6923,-204.987903 l -96.6369,-0.15771 a 48.313696,48.313696 0 0 0 0,-0.0894 48.313696,48.313696 0 0 0 -48.2236,-48.404 48.313696,48.313696 0 0 0 -48.4041,48.22357 48.313696,48.313696 0 0 0 0,0.10812 l -96.6317,-0.15777 a 579.76432,579.76432 0 0 0 169.135,410.2356 z"
       style="fill:#f44336;fill-opacity:1;stroke:none;stroke-width:12.5;stroke-linejoin:round;stroke-miterlimit:4;stroke-dasharray:none;stroke-opacity:1" />
    <path
       inkscape:transform-center-y="-390.58851"
       inkscape:transform-center-x="-204.71069"
       inkscape:connector-curvature="0"
       id="path4170"
       d="m 1254.1542,1002.3404 93.3436,0.1539 a 51.002216,51.002216 0 0 1 51.0864,-50.91807 51.002216,51.002216 0 0 1 50.9181,51.08617 l 93.5277,0.1542 a 288.69173,288.69173 0 0 1 84.7129,-203.99356 l -67.9407,-68.1632 a 48.115296,48.115296 0 0 0 0.066,-0.0599 48.115296,48.115296 0 0 0 0.1271,-68.04551 48.115296,48.115296 0 0 0 -68.0454,-0.12712 48.115296,48.115296 0 0 0 -0.076,0.0757 l -67.9348,-68.15675 a 577.3836,577.3836 0 0 0 -169.7849,407.99414 z"
       style="fill:#ff9800;fill-opacity:1;stroke:none;stroke-width:12.5;stroke-linejoin:round;stroke-miterlimit:4;stroke-dasharray:none;stroke-opacity:1" />
  </g>
</svg>
