<?xml version="1.0" encoding="UTF-8" standalone="no"?>
<!-- Created with Inkscape (http://www.inkscape.org/) -->

<svg
   xmlns:dc="http://purl.org/dc/elements/1.1/"
   xmlns:cc="http://creativecommons.org/ns#"
   xmlns:rdf="http://www.w3.org/1999/02/22-rdf-syntax-ns#"
   xmlns:svg="http://www.w3.org/2000/svg"
   xmlns="http://www.w3.org/2000/svg"
   xmlns:sodipodi="http://sodipodi.sourceforge.net/DTD/sodipodi-0.dtd"
   xmlns:inkscape="http://www.inkscape.org/namespaces/inkscape"
   width="1200"
   height="1200"
   viewBox="0 0 1200 1200"
   id="svg2"
   version="1.1"
   inkscape:version="0.91 r13725"
   sodipodi:docname="cq0.svg">
  <defs
     id="defs4" />
  <sodipodi:namedview
     id="base"
     pagecolor="#dcdcc8"
     bordercolor="#666666"
     borderopacity="1.0"
     inkscape:pageopacity="0"
     inkscape:pageshadow="2"
     inkscape:zoom="0.48083333"
     inkscape:cx="600"
     inkscape:cy="600"
     inkscape:document-units="px"
     inkscape:current-layer="layer1"
     showgrid="false"
     inkscape:showpageshadow="false"
     borderlayer="true"
     units="px"
     inkscape:window-width="1366"
     inkscape:window-height="743"
     inkscape:window-x="0"
     inkscape:window-y="0"
     inkscape:window-maximized="1"
     objecttolerance="20"
     inkscape:snap-path-clip="true"
     inkscape:snap-path-mask="true"
     gridtolerance="10"
     inkscape:snap-perpendicular="true"
     inkscape:snap-tangential="true"
     inkscape:object-paths="true"
     inkscape:snap-intersection-paths="true"
     inkscape:object-nodes="true"
     inkscape:snap-midpoints="true"
     inkscape:snap-smooth-nodes="true"
     inkscape:snap-center="true"
     inkscape:snap-object-midpoints="true"
     inkscape:snap-bbox="true"
     inkscape:bbox-paths="true"
     inkscape:bbox-nodes="true"
     inkscape:snap-bbox-edge-midpoints="true"
     inkscape:snap-bbox-midpoints="true">
    <inkscape:grid
       type="xygrid"
       id="grid3338"
       color="#ffffff"
       opacity="0.1254902"
       empcolor="#ffffff"
       empopacity="0.25098039"
       spacingx="10"
       spacingy="10" />
  </sodipodi:namedview>
  <metadata
     id="metadata7">
    <rdf:RDF>
      <cc:Work
         rdf:about="">
        <dc:format>image/svg+xml</dc:format>
        <dc:type
           rdf:resource="http://purl.org/dc/dcmitype/StillImage" />
        <dc:title />
      </cc:Work>
    </rdf:RDF>
  </metadata>
  <g
     inkscape:label="Layer 1"
     inkscape:groupmode="layer"
     id="layer1"
     transform="translate(0,147.63784)">
    <rect
       style="fill:#000000;fill-opacity:1;stroke:none;stroke-width:12.5;stroke-linejoin:round;stroke-miterlimit:4;stroke-dasharray:none;stroke-opacity:1"
       id="rect4180"
       width="1200"
       height="1200"
       x="0"
       y="-147.63783"
       rx="62.168098"
       ry="62.168098" />
    <path
       style="fill:#f9ce1d;fill-opacity:1;stroke:none;stroke-width:12.5;stroke-linejoin:round;stroke-miterlimit:4;stroke-dasharray:none;stroke-opacity:1"
       d="m 184.43484,28.034002 66.16693,66.385107 a 51.212512,51.212512 0 0 1 72.4253,0.119213 51.212512,51.212512 0 0 1 -0.11922,72.425318 l 66.2975,66.51613 a 289.88213,289.88213 0 0 1 204.98791,-84.69243 l 0.15771,-96.636927 a 48.313696,48.313696 0 0 0 0.0894,0.0043 48.313696,48.313696 0 0 0 48.40399,-48.2236062 48.313696,48.313696 0 0 0 -48.22356,-48.4039778 48.313696,48.313696 0 0 0 -0.10812,0.0039 l 0.15769,-96.631599 A 579.76432,579.76432 0 0 0 184.43484,28.034002 Z"
       id="path3367"
       inkscape:connector-curvature="0"
       inkscape:transform-center-x="180.07512"
       inkscape:transform-center-y="-392.4743" />
    <path
       style="fill:#8bc34a;fill-opacity:1;stroke:none;stroke-width:12.5;stroke-linejoin:round;stroke-miterlimit:4;stroke-dasharray:none;stroke-opacity:1"
       d="m 608.97037,-140.32029 -0.15393,93.34364 a 51.002216,51.002216 0 0 1 50.91808,51.086207 51.002216,51.002216 0 0 1 -51.08616,50.918109 l -0.15417,93.527744 a 288.69173,288.69173 0 0 1 203.99352,84.71293 l 68.1632,-67.94077 a 48.115296,48.115296 0 0 0 0.0599,0.0661 48.115296,48.115296 0 0 0 68.04552,0.12711 48.115296,48.115296 0 0 0 0.12713,-68.045369 48.115296,48.115296 0 0 0 -0.0756,-0.07637 l 68.15664,-67.93448 A 577.3836,577.3836 0 0 0 608.97037,-140.32029 Z"
       id="path4134"
       inkscape:connector-curvature="0"
       inkscape:transform-center-x="-204.71071"
       inkscape:transform-center-y="-390.58851" />
    <path
       inkscape:transform-center-y="-392.47446"
       inkscape:transform-center-x="180.073"
       inkscape:connector-curvature="0"
       id="path4156"
       d="m 1024.3283,36.797 -66.38508,66.16693 a 51.212512,51.212512 0 0 1 -0.11922,72.4253 51.212512,51.212512 0 0 1 -72.42529,-0.11922 l -66.51613,66.2975 a 289.88213,289.88213 0 0 1 84.69237,204.98791 l 96.63675,0.15771 a 48.313696,48.313696 0 0 0 0,0.0894 48.313696,48.313696 0 0 0 48.2236,48.40399 48.313696,48.313696 0 0 0 48.404,-48.22356 48.313696,48.313696 0 0 0 0,-0.10812 l 96.6321,0.15769 A 579.76432,579.76432 0 0 0 1024.3283,36.797 Z"
       style="fill:#009688;fill-opacity:1;stroke:none;stroke-width:12.5;stroke-linejoin:round;stroke-miterlimit:4;stroke-dasharray:none;stroke-opacity:1" />
    <path
       inkscape:transform-center-y="-390.58849"
       inkscape:transform-center-x="-204.71069"
       inkscape:connector-curvature="0"
       id="path4158"
       d="m 1192.6825,461.33253 -93.3439,-0.15393 a 51.002216,51.002216 0 0 1 -51.0857,50.91808 51.002216,51.002216 0 0 1 -50.91837,-51.08616 l -93.52774,-0.15417 a 288.69173,288.69173 0 0 1 -84.71293,203.99352 l 67.94077,68.1632 a 48.115296,48.115296 0 0 0 -0.0661,0.0599 48.115296,48.115296 0 0 0 -0.12711,68.04552 48.115296,48.115296 0 0 0 68.04538,0.12713 48.115296,48.115296 0 0 0 0.0761,-0.0756 l 67.9341,68.1568 a 577.3836,577.3836 0 0 0 169.785,-407.99415 z"
       style="fill:#2196f3;fill-opacity:1;stroke:none;stroke-width:12.5;stroke-linejoin:round;stroke-miterlimit:4;stroke-dasharray:none;stroke-opacity:1" />
    <path
       style="fill:#3f51b5;fill-opacity:1;stroke:none;stroke-width:12.5;stroke-linejoin:round;stroke-miterlimit:4;stroke-dasharray:none;stroke-opacity:1"
       d="m 1015.5652,876.69036 -66.16697,-66.38512 a 51.212512,51.212512 0 0 1 -72.4253,-0.11922 51.212512,51.212512 0 0 1 0.11922,-72.42529 l -66.2975,-66.51613 a 289.88213,289.88213 0 0 1 -204.98791,84.69243 l -0.15771,96.63694 a 48.313696,48.313696 0 0 0 -0.0894,-0.004 48.313696,48.313696 0 0 0 -48.40399,48.22357 48.313696,48.313696 0 0 0 48.22356,48.40399 48.313696,48.313696 0 0 0 0.10812,-0.004 l -0.15769,96.63217 A 579.76432,579.76432 0 0 0 1015.5652,876.69032 Z"
       id="path4162"
       inkscape:connector-curvature="0"
       inkscape:transform-center-x="180.07504"
       inkscape:transform-center-y="-392.47454" />
    <path
       style="fill:#e91e63;fill-opacity:1;stroke:none;stroke-width:12.5;stroke-linejoin:round;stroke-miterlimit:4;stroke-dasharray:none;stroke-opacity:1"
       d="m 591.02963,1045.0447 0.15393,-93.34365 a 51.002216,51.002216 0 0 1 -50.91808,-51.08624 51.002216,51.002216 0 0 1 51.08616,-50.91811 l 0.15417,-93.52774 A 288.69173,288.69173 0 0 1 387.51229,671.45603 l -68.1632,67.94077 a 48.115296,48.115296 0 0 0 -0.0599,-0.0661 48.115296,48.115296 0 0 0 -68.04552,-0.12711 48.115296,48.115296 0 0 0 -0.12713,68.04538 48.115296,48.115296 0 0 0 0.0756,0.0761 l -68.1568,67.93435 a 577.3836,577.3836 0 0 0 407.99413,169.78478 z"
       id="path4164"
       inkscape:connector-curvature="0"
       inkscape:transform-center-x="-204.71061"
       inkscape:transform-center-y="-390.58856" />
    <path
       inkscape:transform-center-y="-392.47438"
       inkscape:transform-center-x="180.07512"
       inkscape:connector-curvature="0"
       id="path4168"
       d="m 175.6718,867.92736 66.38512,-66.16693 a 51.212512,51.212512 0 0 1 0.11922,-72.4253 51.212512,51.212512 0 0 1 72.42529,0.11922 l 66.51613,-66.2975 A 289.88213,289.88213 0 0 1 296.42513,458.16894 l -96.63694,-0.15771 a 48.313696,48.313696 0 0 0 0.004,-0.0894 48.313696,48.313696 0 0 0 -48.22357,-48.40399 48.313696,48.313696 0 0 0 -48.40399,48.22356 48.313696,48.313696 0 0 0 0.004,0.10812 L 6.5369421,457.69175 A 579.76432,579.76432 0 0 0 175.6718,867.92736 Z"
       style="fill:#f44336;fill-opacity:1;stroke:none;stroke-width:12.5;stroke-linejoin:round;stroke-miterlimit:4;stroke-dasharray:none;stroke-opacity:1" />
    <path
       inkscape:transform-center-y="-390.58851"
       inkscape:transform-center-x="-204.71069"
       inkscape:connector-curvature="0"
       id="path4170"
       d="m 7.3175319,443.39183 93.3436081,0.15393 a 51.002216,51.002216 0 0 1 51.08621,-50.91808 51.002216,51.002216 0 0 1 50.91811,51.08616 l 93.52774,0.15417 a 288.69173,288.69173 0 0 1 84.71293,-203.99352 l -67.94077,-68.1632 a 48.115296,48.115296 0 0 0 0.0661,-0.0599 48.115296,48.115296 0 0 0 0.12711,-68.04552 48.115296,48.115296 0 0 0 -68.04538,-0.12712 48.115296,48.115296 0 0 0 -0.0761,0.0757 L 177.10227,35.3977 A 577.3836,577.3836 0 0 0 7.3175319,443.39183 Z"
       style="fill:#ff9800;fill-opacity:1;stroke:none;stroke-width:12.5;stroke-linejoin:round;stroke-miterlimit:4;stroke-dasharray:none;stroke-opacity:1" />
  </g>
</svg>
