<?xml version="1.0" encoding="UTF-8" standalone="no"?>
<!-- Created with Inkscape (http://www.inkscape.org/) -->

<svg
   xmlns:dc="http://purl.org/dc/elements/1.1/"
   xmlns:cc="http://creativecommons.org/ns#"
   xmlns:rdf="http://www.w3.org/1999/02/22-rdf-syntax-ns#"
   xmlns:svg="http://www.w3.org/2000/svg"
   xmlns="http://www.w3.org/2000/svg"
   xmlns:sodipodi="http://sodipodi.sourceforge.net/DTD/sodipodi-0.dtd"
   xmlns:inkscape="http://www.inkscape.org/namespaces/inkscape"
   width="1250"
   height="1250"
   viewBox="0 0 330.72916 330.72918"
   version="1.1"
   id="svg8"
   sodipodi:docname="nd.svg"
   inkscape:version="0.92.1 r15371"
   inkscape:export-filename="/home/richard/Documents/kn.png"
   inkscape:export-xdpi="96"
   inkscape:export-ydpi="96">
  <defs
     id="defs2" />
  <sodipodi:namedview
     id="base"
     pagecolor="#ffffff"
     bordercolor="#666666"
     borderopacity="1.0"
     inkscape:pageopacity="0.0"
     inkscape:pageshadow="2"
     inkscape:zoom="0.324"
     inkscape:cx="700.97008"
     inkscape:cy="563.825"
     inkscape:document-units="mm"
     inkscape:current-layer="layer1"
     showgrid="true"
     units="px"
     inkscape:window-width="937"
     inkscape:window-height="596"
     inkscape:window-x="242"
     inkscape:window-y="40"
     inkscape:window-maximized="0"
     inkscape:snap-bbox="true"
     inkscape:bbox-paths="true"
     inkscape:bbox-nodes="true"
     inkscape:snap-bbox-edge-midpoints="true"
     inkscape:snap-bbox-midpoints="true"
     inkscape:object-paths="true"
     inkscape:snap-intersection-paths="true"
     inkscape:snap-smooth-nodes="true"
     inkscape:snap-midpoints="true"
     inkscape:snap-object-midpoints="true"
     inkscape:snap-center="true"
     inkscape:snap-text-baseline="true"
     fit-margin-top="0"
     fit-margin-left="0"
     fit-margin-right="0"
     fit-margin-bottom="0"
     inkscape:pagecheckerboard="true"
     inkscape:snap-global="false">
    <inkscape:grid
       type="xygrid"
       id="grid3692"
       dotted="true"
       spacingx="2.6458333"
       spacingy="2.6458333"
       originx="0"
       originy="-66.145834" />
  </sodipodi:namedview>
  <metadata
     id="metadata5">
    <rdf:RDF>
      <cc:Work
         rdf:about="">
        <dc:format>image/svg+xml</dc:format>
        <dc:type
           rdf:resource="http://purl.org/dc/dcmitype/StillImage" />
        <dc:title />
      </cc:Work>
    </rdf:RDF>
  </metadata>
  <g
     inkscape:label="Layer 1"
     inkscape:groupmode="layer"
     id="layer1"
     transform="translate(0,99.875013)">
    <path
       inkscape:connector-curvature="0"
       style="fill:#ffffff;stroke:none;stroke-width:5.29166651;stroke-linejoin:round;stroke-miterlimit:4;stroke-dasharray:none;stroke-opacity:1"
       d="m 57.895692,-16.531781 -0.730189,1.462958 -39.967068,79.933621 V 147.51092 H 272.83346 l 40.69726,-81.396584 v -82.646117 z m 3.269568,5.292698 H 308.23958 V 64.864798 L 269.56184,142.21822 H 22.489585 V 66.114336 Z m 148.22713,1.9673228 V 50.451209 h 4.28862 V -9.2717602 Z M 87.474765,-5.217743 v 55.668952 h 5.847704 c 0,-4.054301 -0.02606,-7.952978 -0.07803,-11.695412 V 26.982874 c 0.987586,-0.883629 1.948963,-1.767372 2.88458,-2.651001 0.935596,-0.883629 1.871459,-1.792906 2.807063,-2.728515 3.898338,4.989909 7.640728,9.823399 11.227218,14.501439 3.5865,4.626059 7.32885,9.40849 11.22722,14.346412 h 6.70554 c -4.3142,-5.561661 -8.47289,-10.967815 -12.47521,-16.217614 -4.00234,-5.301782 -8.18659,-10.733463 -12.55272,-16.295129 3.84636,-3.846388 7.6669,-7.692443 11.46131,-11.5388312 3.79442,-3.8983681 7.5889,-7.770995 11.38329,-11.6173778 h -6.86108 c -4.15826,3.9503429 -8.23828,7.9787696 -12.2406,12.08505 -4.00231,4.106275 -8.082873,8.108651 -12.241109,12.007019 -0.259895,0.363847 -0.519907,0.675452 -0.779799,0.935342 -0.207912,0.259892 -0.441875,0.572013 -0.701765,0.93586 0.05197,-0.467804 0.104082,-0.909677 0.156062,-1.325499 0.05197,-0.415827 0.07803,-0.831641 0.07803,-1.247471 V -5.217743 Z M 135.12767,4.8400404 c -0.77968,0 -1.50763,0.3121184 -2.18333,0.9358604 -0.62375,0.5717593 -0.93534,1.2991835 -0.93534,2.1828124 0,0.9356064 0.31159,1.6896001 0.93534,2.2613598 0.6757,0.571759 1.40365,0.857313 2.18333,0.857313 0.77967,0 1.48104,-0.285554 2.10478,-0.857313 0.62374,-0.5717597 0.93586,-1.3257534 0.93586,-2.2613598 0,-0.8836289 -0.31212,-1.6110531 -0.93586,-2.1828124 -0.62374,-0.623742 -1.32511,-0.9358604 -2.10478,-0.9358604 z m 52.6619,13.6441286 c -2.23506,0 -4.34019,0.44187 -6.31538,1.325499 -1.97517,0.831651 -3.7166,2.001462 -5.22397,3.50883 -1.45539,1.455391 -2.62467,3.196296 -3.50831,5.223454 -0.83164,1.97516 -1.24747,4.080317 -1.24747,6.315377 0,2.23506 0.41583,4.340206 1.24747,6.315376 0.88364,1.97517 2.05292,3.690549 3.50831,5.14594 1.50737,1.45538 3.2488,2.625198 5.22397,3.50883 2.02717,0.831649 4.1844,1.247468 6.47144,1.247468 2.18309,0 4.28823,-0.390274 6.31538,-1.169953 2.02715,-0.779672 3.79412,-1.844757 5.30148,-3.196188 l -3.1967,-3.041158 c -1.03957,0.987579 -2.31307,1.767634 -3.82044,2.33939 -1.50737,0.571762 -3.09248,0.857314 -4.75578,0.857314 -2.49496,0 -4.72985,-0.649774 -6.70502,-1.949236 -1.92319,-1.299459 -3.3525,-3.014321 -4.28811,-5.145421 1.92319,-0.779682 4.00228,-1.61132 6.23735,-2.494938 2.23506,-0.93562 4.46996,-1.845419 6.70502,-2.729032 2.28704,-0.935614 4.49587,-1.819341 6.62698,-2.651003 2.18309,-0.883619 4.15848,-1.663155 5.92574,-2.338875 -1.1955,-3.222651 -3.06668,-5.873358 -5.61361,-7.952485 -2.49496,-2.079128 -5.45779,-3.119189 -8.88835,-3.119189 z m 50.70905,0 c -2.23506,0 -4.34021,0.44187 -6.31538,1.325499 -1.97517,0.831651 -3.71608,2.001462 -5.22345,3.50883 -1.4554,1.455391 -2.62521,3.196296 -3.50883,5.223454 -0.83165,1.97516 -1.24747,4.080317 -1.24747,6.315377 0,2.23506 0.41582,4.340206 1.24747,6.315376 0.88362,1.97517 2.05343,3.690549 3.50883,5.14594 1.50737,1.45538 3.24828,2.625198 5.22345,3.50883 2.02715,0.831649 4.1844,1.247468 6.47144,1.247468 2.18309,0 4.28823,-0.390274 6.31538,-1.169953 2.02715,-0.779672 3.79463,-1.844757 5.302,-3.196188 l -3.1967,-3.041158 c -1.03956,0.987579 -2.31308,1.767634 -3.82044,2.33939 -1.50737,0.571762 -3.093,0.857314 -4.7563,0.857314 -2.49496,0 -4.72985,-0.649774 -6.70502,-1.949236 -1.92319,-1.299459 -3.3525,-3.014321 -4.28811,-5.145421 1.92319,-0.779682 4.00228,-1.61132 6.23735,-2.494938 2.23506,-0.93562 4.46996,-1.845419 6.70502,-2.729032 2.28704,-0.935614 4.4964,-1.819341 6.6275,-2.651003 2.18309,-0.883619 4.15796,-1.663155 5.92522,-2.338875 -1.19551,-3.222651 -3.06667,-5.873358 -5.61361,-7.952485 -2.49495,-2.079128 -5.45778,-3.119189 -8.88835,-3.119189 z m -82.83422,0.234093 c -1.03956,0 -2.1307,0.155802 -3.27422,0.467672 -1.09154,0.311869 -2.07949,0.8319 -2.96313,1.559594 -0.88361,0.675717 -1.61105,1.55946 -2.18281,2.651001 -0.57176,1.039569 -0.85783,2.33861 -0.85783,3.897953 0,1.715283 0.36372,3.119056 1.09141,4.210597 0.7277,1.091549 1.63748,1.975289 2.72903,2.651001 1.09154,0.675719 2.2869,1.247341 3.58635,1.71514 1.29946,0.41583 2.49531,0.883743 3.58686,1.403533 1.09154,0.519779 2.00081,1.143516 2.72851,1.871202 0.72769,0.675722 1.09193,1.611045 1.09193,2.806549 0,0.883616 -0.18186,1.63762 -0.54571,2.261359 -0.36385,0.623739 -0.85782,1.143259 -1.48156,1.559079 -0.57175,0.415819 -1.22154,0.727937 -1.94924,0.93586 -0.6757,0.155924 -1.32548,0.233577 -1.94923,0.233577 -0.72769,0 -1.48117,-0.103701 -2.26084,-0.311608 -0.77967,-0.207912 -1.50761,-0.441878 -2.18333,-0.701768 -0.67571,-0.311869 -1.27339,-0.623998 -1.79317,-0.93586 -0.51979,-0.31187 -0.85746,-0.597421 -1.01338,-0.857311 -0.052,0 -0.18225,0.129752 -0.39016,0.389639 -0.15593,0.20792 -0.36384,0.467939 -0.62373,0.779798 -0.25989,0.31187 -0.54543,0.649526 -0.85731,1.013376 -0.31186,0.363849 -0.57189,0.649909 -0.7798,0.857829 1.14352,1.351428 2.62493,2.338869 4.44417,2.962608 1.87121,0.62374 3.6903,0.935861 5.45755,0.935861 3.27464,0 5.79559,-0.88374 7.56285,-2.651001 1.76726,-1.81924 2.651,-4.028583 2.651,-6.627503 0,-1.6633 -0.36373,-3.014445 -1.09141,-4.054014 -0.7277,-1.091541 -1.63749,-1.975284 -2.72903,-2.651001 -1.09154,-0.675722 -2.28689,-1.247341 -3.58635,-1.715143 -1.24747,-0.46781 -2.41728,-0.961781 -3.50883,-1.481563 -1.09153,-0.519779 -2.00082,-1.117452 -2.72851,-1.793171 -0.7277,-0.727689 -1.09192,-1.689082 -1.09192,-2.884578 0,-0.779674 0.15633,-1.429454 0.46818,-1.949235 0.36385,-0.571762 0.77966,-1.013632 1.24747,-1.325502 0.51978,-0.363847 1.06535,-0.623861 1.63711,-0.779796 0.62374,-0.155937 1.19536,-0.234095 1.71514,-0.234095 1.24748,0 2.46888,0.260014 3.66438,0.779798 1.24747,0.467802 2.07912,0.987833 2.49494,1.559595 l 2.33939,-3.040642 c -1.1955,-1.195499 -2.59928,-2.079239 -4.2106,-2.651001 -1.61133,-0.571759 -3.09273,-0.857829 -4.44417,-0.857829 z m -22.72006,0.545703 v 31.187244 h 4.28811 V 19.263965 Z m 122.17859,0 c 1.40341,2.754847 2.72902,5.50977 3.9765,8.264612 1.29946,2.754849 2.57295,5.509773 3.82044,8.264612 1.24748,2.754839 2.52099,5.509763 3.82044,8.264612 1.29948,2.754839 2.67665,5.50976 4.13204,8.264613 2.80685,-5.561672 5.40594,-11.071506 7.79695,-16.529225 2.44298,-5.457711 5.06762,-10.96755 7.87445,-16.529224 h -4.60023 c -1.55935,3.118694 -2.88441,5.873617 -3.976,8.264612 -1.09154,2.33902 -2.05343,4.470217 -2.8851,6.393407 -0.77965,1.87121 -1.50709,3.638185 -2.18281,5.301486 -0.6237,1.611331 -1.29955,3.249062 -2.02726,4.912362 -0.72768,-1.6633 -1.42957,-3.301031 -2.10529,-4.912362 -0.67572,-1.663301 -1.42922,-3.430276 -2.26085,-5.301486 -0.77968,-1.92319 -1.71553,-4.054387 -2.80706,-6.393407 -1.09154,-2.390995 -2.41663,-5.145918 -3.97599,-8.264612 z m -67.33336,3.50883 c 1.97517,0 3.76819,0.519514 5.37952,1.559078 1.61132,0.987587 2.85929,2.365306 3.74292,4.132564 -1.50737,0.57176 -3.14509,1.221537 -4.91236,1.949236 -1.76726,0.675719 -3.56028,1.403141 -5.37952,2.182812 -1.81923,0.727689 -3.63831,1.455629 -5.45755,2.183329 -1.81923,0.727691 -3.53461,1.429062 -5.14593,2.104781 -0.15599,-0.623739 -0.2341,-1.351163 -0.2341,-2.182812 0,-1.611321 0.31213,-3.118784 0.93586,-4.522205 0.62374,-1.455389 1.48142,-2.728902 2.57297,-3.820438 1.09154,-1.091544 2.36453,-1.949231 3.81992,-2.57297 1.4554,-0.675717 3.01497,-1.013375 4.67827,-1.013375 z m 50.70905,0 c 1.97517,0 3.7687,0.519514 5.38003,1.559078 1.61133,0.987587 2.85879,2.365306 3.74241,4.132564 -1.50736,0.57176 -3.14458,1.221537 -4.91185,1.949236 -1.76726,0.675719 -3.56079,1.403141 -5.38003,2.182812 -1.81923,0.727689 -3.63831,1.455629 -5.45755,2.183329 -1.81924,0.727691 -3.53462,1.429062 -5.14593,2.104781 -0.15589,-0.623739 -0.23358,-1.351163 -0.23358,-2.182812 0,-1.611321 0.3116,-3.118784 0.93534,-4.522205 0.62374,-1.455389 1.48142,-2.728902 2.57297,-3.820438 1.09154,-1.091544 2.36506,-1.949231 3.82044,-2.57297 1.45539,-0.675717 3.01445,-1.013375 4.67775,-1.013375 z M 115.73299,65.558298 v 59.722972 h 4.28811 v -11.07116 l 5.06791,-4.67827 11.61686,15.74943 h 4.99039 l -13.56661,-18.63401 c 1.97517,-1.81924 3.84635,-3.58672 5.61361,-5.302 1.81924,-1.767261 3.71647,-3.560287 5.69164,-5.379517 l -2.57297,-2.651 c -2.91079,2.754833 -5.7173,5.405554 -8.42016,7.952487 -2.70287,2.49496 -5.50989,5.09407 -8.42067,7.79694 V 65.558298 Z m 69.74768,0 v 59.722972 h 4.28811 V 65.558298 Z M 41.025404,67.039861 v 58.241409 h 5.302001 V 81.775393 l -0.234092,-2.494936 c 0.259889,0.363847 0.545965,0.754126 0.857826,1.169953 0.311873,0.363847 0.545833,0.649399 0.701768,0.857314 1.351433,1.819238 3.066809,3.976486 5.145939,6.471438 2.131105,2.442975 4.469694,5.093687 7.016626,7.952486 2.546932,2.85881 5.172104,5.795572 7.874971,8.810312 2.754844,2.96275 5.405554,5.87349 7.952486,8.73229 2.598912,2.8588 4.990121,5.56162 7.173206,8.10855 2.235062,2.49494 4.10624,4.6522 5.613611,6.47143 V 69.612828 h -5.302003 v 43.115712 l 0.234095,2.57297 c -0.259892,-0.36384 -0.54596,-0.72756 -0.85783,-1.0914 -0.311869,-0.41582 -0.519776,-0.754 -0.623734,-1.0139 -1.40341,-1.81923 -3.196431,-3.94991 -5.379516,-6.39289 -2.183085,-2.49495 -4.548243,-5.12012 -7.095175,-7.874968 -2.494954,-2.806819 -5.093554,-5.691492 -7.796421,-8.654251 -2.702867,-2.962759 -5.354093,-5.847432 -7.953005,-8.654254 -2.546932,-2.806821 -4.911571,-5.458049 -7.094656,-7.953001 -2.183085,-2.494952 -4.028729,-4.703797 -5.536097,-6.626985 z m 61.967276,12.630753 c -0.77967,0 -1.50761,0.311611 -2.18333,0.935342 -0.62374,0.571762 -0.935343,1.299697 -0.935343,2.183331 0,0.935604 0.311603,1.689082 0.935343,2.260844 0.67572,0.571759 1.40366,0.857829 2.18333,0.857829 0.77967,0 1.48104,-0.28607 2.10478,-0.857829 0.62374,-0.571762 0.93586,-1.32524 0.93586,-2.260844 0,-0.883634 -0.31212,-1.611569 -0.93586,-2.183331 -0.62374,-0.623731 -1.32511,-0.935342 -2.10478,-0.935342 z m 57.69105,13.644129 c -2.28704,0 -4.4443,0.44188 -6.47144,1.325499 -1.97518,0.831659 -3.71661,2.000943 -5.22397,3.508314 -1.4554,1.455388 -2.62468,3.196824 -3.50831,5.223974 -0.83165,1.97517 -1.24747,4.08031 -1.24747,6.31537 0,2.33902 0.41582,4.49627 1.24747,6.47144 0.88363,1.97518 2.05291,3.69055 3.50831,5.14594 1.50736,1.45539 3.24879,2.59862 5.22397,3.43028 1.97516,0.77966 4.10637,1.16944 6.39341,1.16944 2.33902,0 4.49575,-0.41581 6.47092,-1.24747 1.97517,-0.88362 3.69054,-2.05292 5.14594,-3.50831 1.50737,-1.45539 2.67717,-3.17077 3.50883,-5.14594 0.83164,-1.97517 1.24747,-4.08031 1.24747,-6.31538 0,-2.23506 -0.41583,-4.3402 -1.24747,-6.31537 -0.83166,-2.02715 -1.97541,-3.768586 -3.4308,-5.223974 -1.4554,-1.507371 -3.19682,-2.676655 -5.22397,-3.508314 -1.97517,-0.883619 -4.10585,-1.325499 -6.39289,-1.325499 z m 53.90317,0.07803 c -2.23507,0 -4.34021,0.44187 -6.31538,1.325499 -1.97517,0.831662 -3.71661,2.000943 -5.22397,3.508314 -1.45539,1.50736 -2.62469,3.274854 -3.50831,5.302004 -0.83166,1.97517 -1.24747,4.0803 -1.24747,6.31537 0,2.18308 0.41581,4.26218 1.24747,6.23735 0.83164,1.92319 1.94936,3.61252 3.35277,5.06791 1.4554,1.45539 3.17078,2.62469 5.14594,3.50831 2.02716,0.83166 4.20993,1.24747 6.54895,1.24747 1.61132,0 3.09273,-0.20791 4.44417,-0.62373 1.35143,-0.36386 2.54679,-0.88336 3.58635,-1.55908 1.09155,-0.67571 2.00135,-1.40366 2.72903,-2.18333 0.7277,-0.83165 1.27327,-1.68934 1.63711,-2.57297 0,0.4678 -0.026,0.96178 -0.078,1.48156 v 1.63711 3.19671 h 4.28863 V 94.094539 h -3.97651 l -0.31212,6.471441 c -0.36384,-0.831652 -0.9094,-1.663796 -1.63711,-2.495458 -0.72769,-0.883618 -1.63749,-1.663155 -2.72903,-2.338874 -1.03956,-0.727689 -2.23492,-1.299311 -3.58635,-1.71514 -1.35144,-0.41583 -2.8068,-0.623734 -4.36614,-0.623734 z m -113.77755,0.701765 v 31.186732 h 4.28811 V 94.094539 Z m 136.80095,0 c 2.391,4.833969 4.7301,9.849842 7.01714,15.047662 2.28704,5.14585 4.62615,10.10961 7.01715,14.8916 -0.77967,1.71528 -1.48156,3.2488 -2.1053,4.60023 -0.57175,1.40342 -1.11732,2.72902 -1.63711,3.9765 -0.51978,1.24747 -1.06534,2.46888 -1.63711,3.66438 -0.51977,1.24748 -1.11797,2.57257 -1.79369,3.97598 h 4.5222 l 21.28501,-46.156352 h -4.59972 c -1.55934,3.118691 -2.91101,5.925212 -4.05453,8.420162 -1.14353,2.49495 -2.18306,4.78246 -3.11867,6.86159 -0.88362,2.02715 -1.68921,3.92387 -2.41691,5.69113 -0.67571,1.76726 -1.37761,3.48264 -2.1053,5.14594 -0.7277,-1.6633 -1.45511,-3.37868 -2.18281,-5.14594 -0.72769,-1.76726 -1.55934,-3.66398 -2.49494,-5.69113 -0.88364,-2.07913 -1.89711,-4.36664 -3.04064,-6.86159 -1.14351,-2.49495 -2.49518,-5.301471 -4.05453,-8.420162 z m -77.08263,3.508314 c 1.6633,0 3.22235,0.312118 4.67775,0.93586 1.50736,0.623739 2.80693,1.481428 3.89847,2.572968 1.09155,1.09154 1.94923,2.39057 2.57297,3.89796 0.62374,1.45538 0.93586,3.01496 0.93586,4.67826 0,1.66331 -0.31212,3.22288 -0.93586,4.67827 -0.62374,1.4554 -1.48142,2.72838 -2.57297,3.81992 -1.09154,1.09155 -2.39111,1.94924 -3.89847,2.57297 -1.4554,0.62374 -3.01445,0.93586 -4.67775,0.93586 -1.6633,0 -3.22288,-0.31212 -4.67827,-0.93586 -1.45539,-0.62373 -2.72889,-1.48142 -3.82044,-2.57297 -1.09154,-1.09154 -1.94923,-2.36452 -2.57297,-3.81992 -0.62374,-1.45539 -0.93534,-3.01496 -0.93534,-4.67827 0,-1.6633 0.3116,-3.22288 0.93534,-4.67826 0.62374,-1.50739 1.48143,-2.80642 2.57297,-3.89796 1.09155,-1.09154 2.36505,-1.949229 3.82044,-2.572968 1.45539,-0.623742 3.01497,-0.93586 4.67827,-0.93586 z m 54.21529,0 c 1.71529,0 3.3004,0.312118 4.75579,0.93586 1.50737,0.623739 2.80691,1.481428 3.89847,2.572968 1.09154,1.09154 1.94922,2.36505 2.57297,3.82044 0.62374,1.45539 0.93534,3.01445 0.93534,4.67775 0,1.71528 -0.3116,3.30091 -0.93534,4.7563 -0.62375,1.4554 -1.48143,2.72838 -2.57297,3.81992 -1.09156,1.09155 -2.3911,1.94924 -3.89847,2.57297 -1.45539,0.62374 -3.0405,0.93586 -4.75579,0.93586 -1.71527,0 -3.32644,-0.31212 -4.83381,-0.93586 -1.45539,-0.62373 -2.7289,-1.48142 -3.82044,-2.57297 -1.09154,-1.09154 -1.94923,-2.36452 -2.57297,-3.81992 -0.62374,-1.45539 -0.93586,-3.04102 -0.93586,-4.7563 0,-1.71528 0.31212,-3.30039 0.93586,-4.75578 0.62374,-1.45539 1.48143,-2.70284 2.57297,-3.74241 1.09154,-1.09154 2.36505,-1.949229 3.82044,-2.572968 1.50737,-0.623742 3.11854,-0.93586 4.83381,-0.93586 z"
       id="rect4616" />
    <path
       style="opacity:1;fill:#ffffff;stroke:none;stroke-width:5.29166651;stroke-miterlimit:4;stroke-dasharray:none;stroke-opacity:1"
       d="M 0,-99.875007 V 230.85416 h 330.72916 l 0,-330.729167 z m 53.417819,76.50812 H 319.7043 V 66.166407 L 277.31133,154.34603 H 11.024844 V 64.812741 l 41.632361,-86.594755 z"
       id="path4619"
       inkscape:connector-curvature="0"
       sodipodi:nodetypes="ccccccccccccc" />
  </g>
</svg>
