<svg xmlns="http://www.w3.org/2000/svg" height="135" width="946.43" version="1.1" viewBox="0 0 250.41023 35.718756">
<g transform="translate(-60.003 -70.781)">
<g style="paint-order:markers fill stroke" fill="#ffffff" transform="matrix(.63830 0 0 .64082 41.357 33.502)">
<path style="paint-order:markers fill stroke" d="m78.515 99.218q0 3.9379-3.2656 6.5632-3.2336 2.6253-7.2995 2.6253-8.324 0-14.695-8.0038-0.38418 0.28814-2.3371 3.2336-1.6008 2.2091-3.0415 2.2091-0.76837 0-1.3767-0.70434-0.57628-0.67232-0.57628-1.4407 0-2.7533 5.0584-7.0754l-1.2486-2.4972q-0.28814 0.12806-4.5462 2.5612-3.0094 1.6968-4.6422 1.6968-0.99248 0-1.6968-0.60829-0.80038-0.57628-0.80038-1.5047 0-1.8889 4.4501-3.7138 3.1055-0.99248 6.179-2.049 0-1.0565-0.25612-2.8814l-0.35217-0.19209q-3.7778 0.32015-7.5877 0.57628-4.5782 0.4162-7.6197 0.4162-1.3126 0-2.3371-0.54426-1.3126-0.64031-1.3126-1.8249 0-2.8174 3.9379-2.8174 2.8174 0 7.1394 0.32015 6.4031 0.44822 7.1394 0.51225l0.70434-0.19209t0.4162-2.7533q-3.2336-0.89643-6.3711-1.8249-4.5142-1.5688-4.5142-3.7458 0-1.9529 2.5612-1.9529 1.8249 0 4.7703 1.7608 2.8814 1.7608 4.3221 2.017l1.2486-2.4652q-5.6347-3.8098-5.6987-7.0114 0.12806-0.67232 0.64031-1.1526 0.54426-0.51225 1.0565-0.96046 1.6648 0 3.4256 2.017 1.2486 1.6648 2.5612 3.2976 6.8833-8.0679 14.535-8.0679 4.13 0 7.5556 2.6253 3.6818 2.8814 3.6818 6.8193 0 3.5217-3.1695 6.147-3.2015 2.6893-6.8833 2.6893-7.7157 0-15.015-4.7703-0.38418 0.70434-1.0565 2.3051 9.7327 5.1545 21.194 5.5067 1.2486-1.3767 2.4972-1.3767 0.89643 0 1.5367 0.80039 0.67232 0.76837 0.67232 1.7288 0 2.3691-2.4652 2.3691-1.3767 0-2.3691-1.3767-10.629 0.86442-21.066 6.4351l0.99248 2.017q9.1244-5.1545 15.688-5.1545 3.8418 0 6.7553 2.7533 2.8814 2.8174 2.8814 6.6592zm-2.625-26.861q0-2.6893-2.8814-4.9304-2.6893-2.017-5.5707-2.017-2.113 0-2.8174 1.1846-0.22411 0.44822-0.4162 0.89643-0.32015 0.73636-0.64031 0.73636-1.1205 0-1.6328-1.6328-1.4407 0.44822-4.194 2.8174-3.0415 2.5612-3.0415 3.7138 0 1.4407 4.7383 3.6818 4.3861 2.113 6.147 2.113-1.6328-1.985-1.6328-3.7458 0-1.3126 0.99248-2.4972 0.89643-1.1846 2.145-1.1846 0.92845 0 1.7929 0.54426 0.76837 0.57628 0.76837 1.5047 0 1.3126-0.96046 1.5047-1.0565 0.25612-2.049 0.38418 0.51225 2.3691 3.3296 2.3691 2.2411 0 4.066-1.6328 1.8569-1.6648 1.8569-3.8098zm-13.959 12.134-10.437-2.754q-0.06403 0.32015-0.19209 1.0245-0.12806 0.80039-0.19209 1.1846 0.70434 0.54426 4.7703 0.54426zm0.25612 2.3371-10.821 0.35217v1.3126q0 0.19209 0.12806 0.51225 0.12806 0.32015 0.12806 0.51225zm14.023 11.558q0-2.177-2.017-3.8098-2.113-1.6328-4.3541-1.6328-1.8889 0-2.5292 2.3051h0.38418q2.8814 0 2.8814 2.017 0 2.3051-2.4332 2.3051-1.5047 0-2.5612-1.3126-1.1205-1.2486-1.1205-2.7533 0-1.985 1.2486-3.1695h-0.44822q-2.113 0-5.4426 2.2411-2.6253 1.7608-4.7063 3.9379 0.12806 1.2486 3.2656 3.6177 2.6253 2.017 4.4501 2.8174 0-0.064 0-0.12806 0-0.73636 0.67232-1.2486 0.64031-0.54427 1.4407-0.54427h0.19209q1.3126 2.6893 3.9379 2.6893 2.9454 0 5.0264-2.177 2.113-2.2091 2.113-5.1545z"/>
<path style="paint-order:markers fill stroke" d="m116.32 101.59q0 12.326-12.39 12.326-4.0019 0-6.6272-2.9454-2.6893-2.9454-2.6893-6.9474 0-3.6177 2.4972-6.3711 2.4012-2.7533 5.9549-2.7533 2.5612 0 4.4501 1.9209 1.8569 1.8889 1.8569 4.4501 0 1.4407-1.0565 3.0094-1.1205 1.5688-2.4332 1.5688-3.6177 0-3.6177-2.7533 0-0.76837 0.67232-1.5047 0.64031-0.64031 1.5047-0.64031 1.1846 0 1.8249 1.8889 0.35217-0.86441 0.35217-1.5688 0-1.4407-1.1205-2.3691-1.1846-0.89643-2.6893-0.89643-2.3051 0-3.7458 1.6968t-1.4407 4.0019q0 2.8814 2.017 5.0904 2.049 2.3051 4.8663 2.3051 3.8739 0 6.243-2.8814 2.2091-2.6253 2.2091-6.6272-0.064 0-3.2015-8.26 0 0 0-31.215-2.8174 0-4.8663 2.3051-2.017 2.3051-2.017 5.1225 0 2.5612 1.3126 4.7063 1.4407 2.3691 3.7138 3.0735-3.0735-0.44822-5.5066-2.7533-2.4012-2.2731-2.4012-5.2825 0-4.6102 2.9454-7.6837t7.5236-3.0735h4.6742q-2.049 3.9379-2.049 6.4671l0.064 26.573q0 1.8249 1.5688 5.0584 1.6008 3.2656 1.6008 4.9624z"/>
<path style="paint-order:markers fill stroke" d="m125.58 95.024q-3.7458 0-5.8908-2.5292-2.113-2.3691-2.113-6.179 0-8.9323 8.0039-8.9323 3.5217 0 5.6987 2.2411 2.113 2.2411 2.113 5.8268 0 4.194-1.7929 6.6912-2.017 2.8814-6.0189 2.8814zm-0.1921-15.143q-4.9304 0-4.9304 6.1149 0 2.5612 1.5047 4.4501 1.4407 1.8889 4.0019 1.8889 2.049 0 3.4256-2.145 1.2486-1.8249 1.2486-3.9379 0-6.3711-5.2505-6.3711z"/>
<path style="paint-order:markers fill stroke" d="m151.25 94.767-2.8814-0.06403q0-0.25612 0-0.57628 0-0.67232-0.064-1.3767-1.3767 2.2091-4.3861 2.2091-1.4407 0-3.2976-0.8324-1.5047-0.73635-3.0735-1.4407 0.86442-0.92845 1.1205-3.4897 0-11.397 0-11.397l2.5612 0.06403v13.575q1.4407 0.89643 2.7533 0.89643t3.0094-0.96046q1.6328-0.92845 1.6328-2.177v-11.142h2.6253z"/>
<path style="paint-order:markers fill stroke" d="m165.18 82.378q-1.7608-2.081-2.5612-2.081-1.8249 0-2.8174 1.2486-1.0565 1.2806-1.0565 3.0094 0 0.38418 0.064 0.76837v9.3165h-2.7533v-16.649l2.7533 0.06403q-0.064 0-0.064 0.44822 0 0.54426 0.064 1.5047 1.5688-2.4652 3.3616-2.4652 3.0735 0 3.0735 2.9454 0 0.12806 0 0.25612z"/>
<path style="paint-order:markers fill stroke" d="m183.17 103.51q-1.4407-1.3767-1.4407-7.4916v-12.2q-0.064-0.51225-0.064-0.99248 0-0.96046 0.32015-1.5047 0.44822-0.76837 0.92845-1.4407-3.8739-2.2731-6.8833-2.2731-2.7533 0-4.6102 2.145 0-1.4407-0.12807-1.6968-0.76837 0.12806-1.4407 0.12806-0.64031 0-1.1846-0.12806l-0.064 16.584q0.60829-0.06403 1.1846-0.06403 0.86442 0 1.5688 0.12806v-11.59q0-1.1205 1.6328-2.049 1.3767-0.76837 2.4332-0.76837 0.12806 0 0.25613 0 2.4332 0.25612 2.9774 0.8324 0.44821 0.60829 0.44821 2.6893v9.4445q0 4.5782 0.32016 5.6987 0.60829 2.177 3.4897 4.7383z"/>
<path style="paint-order:markers fill stroke" d="m200.17 94.703t-2.6893 0q-0.064 0-0.064 0l-0.064-2.145h-0.064q-2.3691 2.3371-4.7063 2.3371-2.4972 0-4.226-1.6968-1.6968-1.6328-1.6968-4.066 0-2.017 1.5047-3.6498 1.5047-1.6648 3.4897-1.6648 3.4577 0 4.5782 3.1695l-0.064-0.09605q-0.99247-1.3767-4.13-1.3767-2.6253 0-2.6253 3.3616 0 1.3126 1.0565 2.3691 0.99248 1.0245 2.2411 1.0245 3.3936-0.06403 4.258-1.5047 0.57628-1.1205 0.57628-5.4426 0-3.3296-0.57628-4.13-0.80039-1.1205-4.0019-1.1205-3.0735 0-5.4426 1.985-0.12806-0.12806-0.12806-0.32015 0-1.4407 2.6893-2.8174 2.2731-1.1846 4.0019-1.1846 1.6328 0 3.8418 0.96046 2.2411 0.99248 2.9774 0.99248-0.73635 1.3126-0.73635 9.1244 0 5.8908 0 5.8908z"/>
<path style="paint-order:markers fill stroke" d="m208.05 94.832q-0.57628-0.12806-1.5047-0.12806-0.57628 0-1.3767 0.06403v-35.922q0.67232 0.06403 1.3767 0.06403 0.73636 0 1.5047-0.06403z"/>
<path style="paint-order:markers fill stroke" d="m230.87 95.024q-3.7458 0-5.8908-2.5292-2.113-2.3691-2.113-6.179 0-8.9323 8.0039-8.9323 3.5217 0 5.6987 2.2411 2.113 2.2411 2.113 5.8268 0 4.194-1.7929 6.6912-2.017 2.8814-6.0189 2.8814zm-0.1921-15.143q-4.9304 0-4.9304 6.1149 0 2.5612 1.5047 4.4501 1.4407 1.8889 4.0019 1.8889 2.049 0 3.4256-2.145 1.2486-1.8249 1.2486-3.9379 0-6.3711-5.2505-6.3711z"/>
<path style="paint-order:markers fill stroke" d="m252.61 62.656q0 0.06403 0 0.12806 0 1.3126-0.80039 2.3691-0.86442 1.0885-2.017 1.0885-0.064 0-0.12806 0-1.1205-0.06403-1.1846-0.12806-0.12806 0-1.0565-0.8324-0.064-0.48023-0.064-0.80038t0.064-0.51225q0.38418-0.60829 0.76837-1.1205l1.8569 0.12806 0.064-0.38418q-0.19209-2.177-2.4332-2.177-1.4407 0-2.4652 1.1205-0.99248 1.1205-0.99248 2.6253 0 0.19209 0.064 0.67232 0.064 0.44822 0.064 0.70434 2.6253 2.3691 3.2015 6.5632l3.2015 0.06403v2.081h-3.1375v34.417t-2.9454 0l-0.064-34.353-4.0019-0.06403v-2.3691q4.066 0.09605 4.066 0.09605 0-3.4897-3.2015-6.307-0.28814-1.2486-0.35217-1.2486 0 0 0 0.12806 0-2.5612 1.6968-4.3861 1.7288-1.8249 4.2901-1.985 0.25613 0 0.44822 0 2.113 0 3.3936 1.1205 1.4727 1.2486 1.6648 3.3616z"/>
<path style="paint-order:markers fill stroke" d="m293.17 102.77q0 4.4501-4.0019 7.8118-4.066 3.3296-8.5801 3.3296-7.6837 0-12.07-7.5236-3.6177-6.307-3.6177-14.567 0-7.6837 5.2505-16.808 5.2505-9.1564 11.942-12.55h-12.134q-0.99248 0-1.6328 0.8324-0.73636 0.92845-0.73636 1.9209 0 1.5688 1.5367 1.5688l1.0885-0.67232v-1.1205q2.3692 0.73636 2.3692 1.7929 0 1.1846-1.0885 1.985-1.0565 0.76837-2.3051 0.76837-4.5462 0-4.5462-4.7383 0-6.147 7.2995-6.147 0.76837 0 1.3767 0.06403h18.665l0.064 3.2656q-0.064 0-0.12807 0-5.0904 0-10.693 5.3786-4.8984 4.8663-8.388 12.006-3.4577 7.2035-3.4577 12.198 0 6.4991 2.4972 11.718 3.2015 6.6272 8.9643 6.6272 2.9454 0 5.8268-2.4012 2.8174-2.3691 2.8174-5.2505t-1.6328-5.1225-4.4501-2.2411q-2.177 0-3.7458 1.1205-1.8249 1.2486-1.8249 3.2976 0 1.5047 0.99248 2.5932 0.89643 1.1846 2.3371 1.1846t2.3691-0.8324q-2.3691-0.54426-2.3691-2.2411l2.3051-2.081q1.1846 0.06403 2.049 0.96046 0.76837 0.99248 0.76837 2.2411 0 2.081-1.4407 3.3936t-3.5537 1.3126q-2.6573 0-4.5782-2.081-1.9529-2.113-1.9529-4.8023 0-2.8814 2.2091-5.0904 2.049-2.049 4.9944-2.8494-4.0019-3.4577-4.0019-7.2035 0-2.4972 1.8889-4.5142 1.9209-2.049 4.4181-2.049 1.3767 0 2.4652 1.0565 1.1205 1.0565 1.1205 2.4332 0 2.6893-2.017 2.6893-1.6968 0-1.6968-1.6968 0-0.80038 0.32015-1.7929h-0.19209q-1.4407 0-2.3691 1.2486-0.92845 1.2486-0.92845 2.7533 0 2.2411 3.1695 4.9304 4.9624 4.194 5.8908 5.2505 3.1375 3.7138 3.1375 8.6442z"/>
<path style="paint-order:markers fill stroke" d="m307.68 94.703t-2.6893 0q-0.064 0-0.064 0l-0.064-2.145h-0.064q-2.3692 2.3371-4.7063 2.3371-2.4972 0-4.226-1.6968-1.6968-1.6328-1.6968-4.066 0-2.017 1.5047-3.6498 1.5047-1.6648 3.4897-1.6648 3.4577 0 4.5782 3.1695l-0.064-0.09605q-0.99248-1.3767-4.13-1.3767-2.6253 0-2.6253 3.3616 0 1.3126 1.0565 2.3691 0.99248 1.0245 2.2411 1.0245 3.3936-0.06403 4.258-1.5047 0.57628-1.1205 0.57628-5.4426 0-3.3296-0.57628-4.13-0.80038-1.1205-4.0019-1.1205-3.0735 0-5.4426 1.985-0.12806-0.12806-0.12806-0.32015 0-1.4407 2.6893-2.8174 2.2731-1.1846 4.0019-1.1846 1.6328 0 3.8418 0.96046 2.2411 0.99248 2.9774 0.99248-0.73636 1.3126-0.73636 9.1244 0 5.8908 0 5.8908z"/>
<path style="paint-order:markers fill stroke" d="m315.42 94.575h-2.8814v-16.391h3.0735v2.2411q3.1695-2.5612 5.1225-2.5612 3.4256 0 5.2505 2.6253 1.1846-0.86442 2.3691-1.6968 1.1205-0.86442 2.8814-0.86442 1.7608 0 3.8098 0.86442 1.7608 0.76837 3.5217 1.6328-1.1846 1.2486-1.1846 1.8889v18.569q0 0.8324 1.6648 2.5612v0.1921h-0.12807q-0.16007 0-0.35216 0-0.89644 0-2.081-0.6083-1.9209-1.0565-1.9209-3.2656v-17.507q-1.0245-1.4407-3.0735-1.4407-2.4972 0-3.5217 1.3126-0.92844 1.0565-1.0565 3.6818-0.12806 1.6968-0.12806 4.5142 0 1.8249 0.064 4.194h-2.93v-11.941q0-2.081-4.3541-2.081-1.0885 0-2.5292 0.89643-1.6008 0.92845-1.6008 1.985 0 0.06403 0 0.12806z"/>
<path style="paint-order:markers fill stroke" d="m358.65 89.517q0 2.6253-2.4972 4.258-2.2411 1.4727-4.9944 1.4727-3.2656 0-5.7628-2.7533-2.4972-2.6893-2.4972-5.9869 0-3.7458 2.113-6.211 2.017-2.4972 5.6987-2.4972 5.6988 0 7.5236 5.5067-1.9529 1.5688-11.141 6.6272 1.7288 2.7533 4.4822 2.7533 3.7138 0 6.8833-4.0019 0.19209 0.57628 0.19209 0.8324zm-4.066-6.8193q0-0.89643-1.3767-1.6968-1.4407-0.76837-2.4972-0.76837-2.177 0-3.5537 1.8249-1.3767 1.8889-1.3767 4.13 0 1.1205 0.12806 1.6968h0.064q2.9774-1.8249 8.6122-5.1865z"/>
<path style="paint-order:markers fill stroke" d="m372.22 99.218q0 3.9379 3.3296 6.6272 3.1695 2.5612 7.2035 2.5612 8.356 0 14.695-8.0038 0.4162 0.28814 2.3691 3.2336 1.5688 2.2091 3.0094 2.2091 0.80039 0 1.3767-0.70434 0.60829-0.67232 0.60829-1.4407 0-2.7533-5.0584-7.0754l1.2486-2.4972q0.25613 0.12806 4.5142 2.5612 3.0094 1.6968 4.6742 1.6968 0.96046 0 1.7608-0.60829 0.70433-0.57628 0.70433-1.5047 0-1.8889-4.4501-3.7138-3.0735-0.99248-6.147-2.049 0-1.0565 0.25613-2.8814l0.32015-0.19209q3.8098 0.32015 7.6197 0.57628 4.5782 0.4162 7.5876 0.4162 1.3126 0 2.3691-0.54426 1.3126-0.64031 1.3126-1.8249 0-2.8174-3.9379-2.8174-2.8174 0-7.1394 0.32015-6.4351 0.44822-7.1394 0.51225l-0.73635-0.19209t-0.38419-2.7533q3.2016-0.89643 6.3391-1.8249 4.5462-1.5688 4.5462-3.7458 0-1.9529-2.5612-1.9529-1.9209 0-4.6742 1.6968-3.0094 1.8249-4.4501 2.081l-1.2486-2.4652q5.6347-3.8098 5.6987-7.0114-0.12806-0.67232-0.64031-1.1526-0.51224-0.51225-1.0565-0.96046-1.6328 0-3.3936 2.017-1.2486 1.6648-2.5612 3.2976-6.8833-8.0679-14.567-8.0679-4.13 0-7.5236 2.6253-3.6818 2.8814-3.6818 6.8193 0 3.5217 3.2015 6.147 3.1695 2.6893 6.8193 2.6893 7.7477 0 15.015-4.7703 0.4162 0.70434 1.0565 2.3051-9.7007 5.1545-21.162 5.5067-1.2486-1.3767-2.4972-1.3767-0.92845 0-1.6008 0.80039-0.64031 0.76837-0.64031 1.7288 0 2.3691 2.4972 2.3691 1.3767 0 2.3691-1.3767 10.597 0.86442 21.034 6.4351l-0.99248 2.017q-9.0924-5.1545-15.656-5.1545-3.8739 0-6.7552 2.7533-2.8814 2.8174-2.8814 6.6592zm2.6253-26.861q0-2.6893 2.8814-4.9304 2.6893-2.017 5.5707-2.017 2.081 0 2.8174 1.1846 0.19209 0.44822 0.38418 0.89643 0.32016 0.73636 0.67233 0.73636 1.1205 0 1.6328-1.6328 1.4407 0.44822 4.194 2.8174 3.0094 2.5612 3.0094 3.7138 0 1.4407-4.7063 3.6818-4.3861 2.113-6.179 2.113 1.6328-1.985 1.6328-3.7458 0-1.3126-0.89644-2.4972-0.99247-1.1846-2.2411-1.1846-0.92844 0-1.6968 0.54426-0.86442 0.57628-0.86442 1.5047 0 1.3126 1.0565 1.5047 0.99248 0.25612 1.9529 0.38418-0.51225 2.3691-3.3296 2.3691-2.2411 0-4.066-1.6328-1.8249-1.6648-1.8249-3.8098zm13.959 12.134 10.437-2.7533q0.064 0.32015 0.19209 1.0245 0.12806 0.80039 0.19209 1.1846-0.73635 0.54426-4.8023 0.54426zm-0.25612 2.3371 10.821 0.35217v1.3126q0 0.19209-0.16008 0.51225-0.12806 0.32015-0.12806 0.51225zm-14.055 11.558q0-2.177 2.113-3.8098 2.017-1.6328 4.258-1.6328 1.8889 0 2.5612 2.3051h-0.38418q-2.8814 0-2.8814 2.017 0 2.3051 2.4012 2.3051 1.5047 0 2.6253-1.3126 1.0565-1.2486 1.0565-2.7533 0-1.985-1.2486-3.1695h0.44821q2.113 0 5.4426 2.2411 2.6253 1.7608 4.7383 3.9379-0.12806 1.2486-3.2656 3.6177-2.6253 2.017-4.4822 2.8174 0-0.064 0-0.12806 0-0.73636-0.57627-1.2486-0.73636-0.54427-1.5047-0.54427h-0.19209q-1.3126 2.6893-3.9379 2.6893-2.9454 0-5.0584-2.177-2.113-2.2091-2.113-5.1545z"/>
</g>
</g>
</svg>
