<?xml version="1.0" encoding="UTF-8" standalone="no"?>
<!-- Created with Inkscape (http://www.inkscape.org/) -->

<svg
   xmlns:dc="http://purl.org/dc/elements/1.1/"
   xmlns:cc="http://creativecommons.org/ns#"
   xmlns:rdf="http://www.w3.org/1999/02/22-rdf-syntax-ns#"
   xmlns:svg="http://www.w3.org/2000/svg"
   xmlns="http://www.w3.org/2000/svg"
   xmlns:sodipodi="http://sodipodi.sourceforge.net/DTD/sodipodi-0.dtd"
   xmlns:inkscape="http://www.inkscape.org/namespaces/inkscape"
   width="1200"
   height="1200"
   viewBox="0 0 1200 1200"
   id="svg2"
   version="1.1"
   inkscape:version="0.91 r13725"
   sodipodi:docname="0.svg">
  <defs
     id="defs4" />
  <sodipodi:namedview
     id="base"
     pagecolor="#dcdcc8"
     bordercolor="#666666"
     borderopacity="1.0"
     inkscape:pageopacity="0"
     inkscape:pageshadow="2"
     inkscape:zoom="0.48166667"
     inkscape:cx="600"
     inkscape:cy="600"
     inkscape:document-units="px"
     inkscape:current-layer="layer1"
     showgrid="true"
     inkscape:showpageshadow="false"
     borderlayer="true"
     units="px"
     inkscape:window-width="1366"
     inkscape:window-height="744"
     inkscape:window-x="0"
     inkscape:window-y="0"
     inkscape:window-maximized="1"
     objecttolerance="20"
     inkscape:snap-path-clip="true"
     inkscape:snap-path-mask="true"
     gridtolerance="10"
     inkscape:snap-perpendicular="true"
     inkscape:snap-tangential="true"
     inkscape:object-paths="true"
     inkscape:snap-intersection-paths="true"
     inkscape:object-nodes="true"
     inkscape:snap-midpoints="true"
     inkscape:snap-smooth-nodes="true"
     inkscape:snap-center="true"
     inkscape:snap-object-midpoints="true"
     inkscape:snap-bbox="true"
     inkscape:bbox-paths="true"
     inkscape:bbox-nodes="true"
     inkscape:snap-bbox-edge-midpoints="true"
     inkscape:snap-bbox-midpoints="true">
    <inkscape:grid
       type="xygrid"
       id="grid3338"
       color="#ffffff"
       opacity="0.1254902"
       empcolor="#ffffff"
       empopacity="0.25098039"
       spacingx="10"
       spacingy="10" />
  </sodipodi:namedview>
  <metadata
     id="metadata7">
    <rdf:RDF>
      <cc:Work
         rdf:about="">
        <dc:format>image/svg+xml</dc:format>
        <dc:type
           rdf:resource="http://purl.org/dc/dcmitype/StillImage" />
        <dc:title></dc:title>
      </cc:Work>
    </rdf:RDF>
  </metadata>
  <g
     inkscape:label="Layer 1"
     inkscape:groupmode="layer"
     id="layer1"
     transform="translate(0,147.63784)">
    <path
       style="fill:#f44336;fill-opacity:1;stroke:#000000;stroke-width:13.10292721;stroke-linejoin:round;stroke-miterlimit:4;stroke-dasharray:none;stroke-opacity:1"
       d="m 599.99991,154.66302 0,99.23281 a 24.808207,24.808207 0 0 1 24.80819,24.80826 24.808207,24.808207 0 0 1 -24.80819,24.80818 l 0,148.84926 116.37566,-92.80596 a 24.808207,24.808207 0 0 0 34.86324,3.92865 24.808207,24.808207 0 0 0 3.92664,-34.86328 l 77.5839,-61.87133 A 297.69851,297.69851 0 0 0 599.99991,154.66302 Z"
       id="path3343"
       inkscape:connector-curvature="0"
       inkscape:transform-center-x="-111.01977"
       inkscape:transform-center-y="-142" />
    <path
       inkscape:transform-center-y="-56.93808"
       inkscape:transform-center-x="-141.9998"
       inkscape:connector-curvature="0"
       id="path3373"
       d="m 832.74977,266.74928 -77.58326,61.87074 a 24.808207,24.808207 0 0 1 -3.9282,34.86352 24.808207,24.808207 0 0 1 -34.86347,-3.92814 l -116.37493,92.80613 145.1177,33.12241 a 24.808207,24.808207 0 0 0 18.66538,29.70663 24.808207,24.808207 0 0 0 29.70539,-18.66694 l 96.74576,22.08127 A 297.69851,297.69851 0 0 0 832.74977,266.74928 Z"
       style="fill:#ff9800;fill-opacity:1;stroke:#000000;stroke-width:13.10292721;stroke-linejoin:round;stroke-miterlimit:4;stroke-dasharray:none;stroke-opacity:1" />
    <path
       style="fill:#f9ce1d;fill-opacity:1;stroke:#000000;stroke-width:13.10292721;stroke-linejoin:round;stroke-miterlimit:4;stroke-dasharray:none;stroke-opacity:1"
       d="m 890.23465,518.60502 -96.74489,-22.08115 a 24.808207,24.808207 0 0 1 -29.70656,18.66588 24.808207,24.808207 0 0 1 -18.66591,-29.70647 l -145.11738,-33.12175 64.58342,134.109 a 24.808207,24.808207 0 0 0 -11.58787,33.11496 24.808207,24.808207 0 0 0 33.11543,11.58594 l 43.05626,89.40627 a 297.69851,297.69851 0 0 0 161.0675,-201.97268 z"
       id="path3375"
       inkscape:connector-curvature="0"
       inkscape:transform-center-x="-138.43984"
       inkscape:transform-center-y="127.93714" />
    <path
       inkscape:transform-center-y="141.99986"
       inkscape:transform-center-x="-0.00114"
       inkscape:connector-curvature="0"
       id="path3377"
       d="m 729.16738,720.57817 -43.05582,-89.40552 a 24.808207,24.808207 0 0 1 -33.11534,-11.5875 24.808207,24.808207 0 0 1 11.58743,-33.11528 L 599.99991,452.36153 535.41653,586.47055 a 24.808207,24.808207 0 0 0 -33.11523,11.58712 24.808207,24.808207 0 0 0 11.58893,33.11439 l -43.0554,89.40668 a 297.69851,297.69851 0 0 0 258.33255,-5.7e-4 z"
       style="fill:#8bc34a;fill-opacity:1;stroke:#000000;stroke-width:13.10292721;stroke-linejoin:round;stroke-miterlimit:4;stroke-dasharray:none;stroke-opacity:1" />
    <path
       style="fill:#009688;fill-opacity:1;stroke:#000000;stroke-width:13.10292721;stroke-linejoin:round;stroke-miterlimit:4;stroke-dasharray:none;stroke-opacity:1"
       d="m 470.8346,720.57921 43.05509,-89.40587 a 24.808207,24.808207 0 0 1 -11.58765,-33.11528 24.808207,24.808207 0 0 1 33.1152,-11.58768 l 64.58267,-134.10885 -145.1177,33.12245 a 24.808207,24.808207 0 0 0 -29.7062,-18.66604 24.808207,24.808207 0 0 0 -18.66426,29.70709 l -96.74554,22.0822 A 297.69851,297.69851 0 0 0 470.8346,720.57921 Z"
       id="path3379"
       inkscape:connector-curvature="0"
       inkscape:transform-center-x="138.43934"
       inkscape:transform-center-y="127.93786" />
    <path
       inkscape:transform-center-y="-56.93587"
       inkscape:transform-center-x="141.99993"
       inkscape:connector-curvature="0"
       id="path3381"
       d="m 309.76571,518.60734 96.74471,-22.08194 a 24.808207,24.808207 0 0 1 18.66576,-29.70664 24.808207,24.808207 0 0 1 29.70661,18.66567 l 145.11712,-33.1229 -116.37568,-92.80594 a 24.808207,24.808207 0 0 0 -3.92786,-34.86332 24.808207,24.808207 0 0 0 -34.86291,3.92979 l -77.58448,-61.87059 a 297.69851,297.69851 0 0 0 -57.48327,251.85587 z"
       style="fill:#2196f3;fill-opacity:1;stroke:#000000;stroke-width:13.10292721;stroke-linejoin:round;stroke-miterlimit:4;stroke-dasharray:none;stroke-opacity:1" />
    <path
       style="fill:#3f51b5;fill-opacity:1;stroke:#000000;stroke-width:13.10292721;stroke-linejoin:round;stroke-miterlimit:4;stroke-dasharray:none;stroke-opacity:1"
       d="m 367.25007,266.74929 77.58327,61.87072 a 24.808207,24.808207 0 0 1 34.86352,-3.92807 24.808207,24.808207 0 0 1 3.92811,34.86344 l 116.37494,92.80615 5.8e-4,-148.84973 a 24.808207,24.808207 0 0 0 24.80843,-24.80769 24.808207,24.808207 0 0 0 -24.80893,-24.80689 l -8e-5,-99.23369 A 297.69851,297.69851 0 0 0 367.25007,266.74929 Z"
       id="path3383"
       inkscape:connector-curvature="0"
       inkscape:transform-center-x="99.186253"
       inkscape:transform-center-y="-141.99976" />
    <path
       style="fill:#009688;fill-opacity:1;stroke:#000000;stroke-width:12.37244892;stroke-linejoin:round;stroke-miterlimit:4;stroke-dasharray:none;stroke-opacity:1"
       d="M 1193.846,452.40093 A 593.87756,593.87756 0 0 0 1019.9047,32.4653 l -66.3379,66.33797 a 50,50 0 0 1 0.008,0.006 50,50 0 0 1 0.008,70.71094 50,50 0 0 1 -70.71094,0.008 50,50 0 0 1 -0.0137,-0.0156 l -70.7129,70.71289 a 300,300 0 0 1 0.0234,0.0215 300,300 0 0 1 87.70477,212.15393 l 100.18557,0 a 50,50 0 0 0 50,50 50,50 0 0 0 50,-50 l 93.787,0 z"
       id="path3403"
       inkscape:connector-curvature="0"
       inkscape:transform-center-x="-184.9678"
       inkscape:transform-center-y="402.93651" />
    <path
       inkscape:transform-center-y="209.94271"
       inkscape:transform-center-x="-402.89488"
       inkscape:connector-curvature="0"
       id="path3441"
       d="M 1019.8848,32.5675 A 593.87756,593.87756 0 0 0 599.96908,-141.4218 l -0.0101,93.8159 a 50,50 0 0 1 0.01,0 50,50 0 0 1 50.00046,49.9999 50,50 0 0 1 -49.9999,50.0005 50,50 0 0 1 -0.0207,0 l -0.0108,100.00309 a 300,300 0 0 1 0.0317,-0.001 300,300 0 0 1 212.02266,88.02164 l 70.8495,-70.83426 a 50,50 0 0 0 70.71068,0.008 50,50 0 0 0 0.008,-70.71068 L 1019.8852,32.5709 Z"
       style="fill:#8bc34a;fill-opacity:1;stroke:#000000;stroke-width:12.37244892;stroke-linejoin:round;stroke-miterlimit:4;stroke-dasharray:none;stroke-opacity:1" />
    <path
       style="fill:#f9ce1d;fill-opacity:1;stroke:#000000;stroke-width:12.37244892;stroke-linejoin:round;stroke-miterlimit:4;stroke-dasharray:none;stroke-opacity:1"
       d="M 599.96676,-141.3938 A 593.87756,593.87756 0 0 0 180.03181,32.5491 l 66.33809,66.33765 a 50,50 0 0 1 0.007,-0.007 50,50 0 0 1 70.71094,-0.008 50,50 0 0 1 0.008,70.71095 50,50 0 0 1 -0.0146,0.0147 l 70.71309,70.71264 a 300,300 0 0 1 0.0217,-0.0231 300,300 0 0 1 212.15362,-87.70554 l -3.7e-4,-100.18556 a 50,50 0 0 0 50.0001,-49.99994 50,50 0 0 0 -49.9999,-50.0001 l -3.7e-4,-93.7871 z"
       id="path3443"
       inkscape:connector-curvature="0"
       inkscape:transform-center-x="-402.93497"
       inkscape:transform-center-y="-184.96846" />
    <path
       inkscape:transform-center-y="-402.89499"
       inkscape:transform-center-x="-209.94221"
       inkscape:connector-curvature="0"
       id="path3445"
       d="M 180.1432,32.4773 A 593.87756,593.87756 0 0 0 6.154,452.3931 l 93.81592,0.0101 a 50,50 0 0 1 -2.11e-4,-0.01 50,50 0 0 1 50.000071,-50.0003 50,50 0 0 1 50.0003,50.00008 50,50 0 0 1 7e-5,0.0207 l 100.00309,0.0108 a 300,300 0 0 1 -9.8e-4,-0.0317 300,300 0 0 1 88.02158,-212.02269 l -70.83429,-70.84948 a 50,50 0 0 0 0.008,-70.71071 50,50 0 0 0 -70.71068,-0.008 L 180.14646,32.4773 Z"
       style="fill:#ff9800;fill-opacity:1;stroke:#000000;stroke-width:12.37244892;stroke-linejoin:round;stroke-miterlimit:4;stroke-dasharray:none;stroke-opacity:1" />
    <path
       style="fill:#f44336;fill-opacity:1;stroke:#000000;stroke-width:12.37244892;stroke-linejoin:round;stroke-miterlimit:4;stroke-dasharray:none;stroke-opacity:1"
       d="m 6.18199,452.39541 a 593.87756,593.87756 0 0 0 173.94305,419.93492 l 66.33764,-66.33811 a 50,50 0 0 1 -0.008,-0.007 50,50 0 0 1 -0.008,-70.71094 50,50 0 0 1 70.71095,-0.008 50,50 0 0 1 0.0146,0.0146 l 70.71264,-70.71309 a 300,300 0 0 1 -0.0231,-0.0217 300,300 0 0 1 -87.7056,-212.15359 l -100.18504,4.3e-4 A 50,50 0 0 0 149.97151,402.3928 50,50 0 0 0 99.97141,452.39271 L 6.1843,452.3931 Z"
       id="path3447"
       inkscape:connector-curvature="0"
       inkscape:transform-center-x="184.96847"
       inkscape:transform-center-y="-402.93533" />
    <path
       inkscape:transform-center-y="-209.94226"
       inkscape:transform-center-x="402.89466"
       inkscape:connector-curvature="0"
       id="path3449"
       d="M 180.05323,872.21893 A 593.87756,593.87756 0 0 0 599.96908,1046.208 l 0.0101,-93.81591 a 50,50 0 0 1 -0.0104,2.3e-4 50,50 0 0 1 -50.00029,-50.00007 50,50 0 0 1 50.00008,-50.00031 50,50 0 0 1 0.0207,-4.6e-4 l 0.0108,-100.00308 a 300,300 0 0 1 -0.0316,6.4e-4 300,300 0 0 1 -212.0227,-88.02153 l -70.84922,70.83503 a 50,50 0 0 0 -70.71071,-0.008 50,50 0 0 0 -0.008,70.71068 l -66.32461,66.31044 z"
       style="fill:#3f51b5;fill-opacity:1;stroke:#000000;stroke-width:12.37244892;stroke-linejoin:round;stroke-miterlimit:4;stroke-dasharray:none;stroke-opacity:1" />
    <path
       style="fill:#1e88e5;fill-opacity:1;stroke:#000000;stroke-width:12.37244892;stroke-linejoin:round;stroke-miterlimit:4;stroke-dasharray:none;stroke-opacity:1"
       d="m 599.9708,1046.18 a 593.87756,593.87756 0 0 0 419.9351,-173.94274 l -66.3381,-66.3377 a 50,50 0 0 1 -0.007,0.008 50,50 0 0 1 -70.71093,0.008 50,50 0 0 1 -0.008,-70.71095 50,50 0 0 1 0.0143,-0.015 l -70.713,-70.7127 a 300,300 0 0 1 -0.0219,0.0228 300,300 0 0 1 -212.15364,87.70545 l 10e-4,100.18589 a 50,50 0 0 0 -49.99971,49.99943 50,50 0 0 0 49.99986,50.00015 l 3e-4,93.78717 z"
       id="path3451"
       inkscape:connector-curvature="0"
       inkscape:transform-center-x="402.93536"
       inkscape:transform-center-y="184.96848" />
    <path
       inkscape:transform-center-y="402.88479"
       inkscape:transform-center-x="209.97668"
       inkscape:connector-curvature="0"
       id="path3453"
       d="m 1019.7547,872.34884 a 593.87756,593.87756 0 0 0 174.0291,-419.89925 l -93.8159,-0.0191 a 50,50 0 0 1 7e-4,0.0106 50,50 0 0 1 -50.0048,49.99555 50,50 0 0 1 -49.99557,-50.00481 50,50 0 0 1 -4.9e-4,-0.0207 l -100.00307,-0.0204 a 300,300 0 0 1 6.3e-4,0.0316 300,300 0 0 1 -88.04175,212.0143 l 70.82826,70.85597 a 50,50 0 0 0 -0.0147,70.71008 50,50 0 0 0 70.71069,0.0147 l 66.3041,66.33095 z"
       style="fill:#00bcd4;fill-opacity:1;stroke:#000000;stroke-width:12.37244892;stroke-linejoin:round;stroke-miterlimit:4;stroke-dasharray:none;stroke-opacity:1" />
  </g>
</svg>
