<?xml version="1.0" encoding="UTF-8" standalone="no"?>
<!-- Created with Inkscape (http://www.inkscape.org/) -->

<svg
   xmlns:dc="http://purl.org/dc/elements/1.1/"
   xmlns:cc="http://creativecommons.org/ns#"
   xmlns:rdf="http://www.w3.org/1999/02/22-rdf-syntax-ns#"
   xmlns:svg="http://www.w3.org/2000/svg"
   xmlns="http://www.w3.org/2000/svg"
   xmlns:sodipodi="http://sodipodi.sourceforge.net/DTD/sodipodi-0.dtd"
   xmlns:inkscape="http://www.inkscape.org/namespaces/inkscape"
   width="1200"
   height="1200"
   viewBox="0 0 1200 1200"
   id="svg2"
   version="1.1"
   inkscape:version="0.91 r13725"
   sodipodi:docname="cq0-pro.svg">
  <defs
     id="defs4" />
  <sodipodi:namedview
     id="base"
     pagecolor="#dcdcc8"
     bordercolor="#666666"
     borderopacity="1.0"
     inkscape:pageopacity="0"
     inkscape:pageshadow="2"
     inkscape:zoom="0.48166667"
     inkscape:cx="600"
     inkscape:cy="600"
     inkscape:document-units="px"
     inkscape:current-layer="layer1"
     showgrid="true"
     inkscape:showpageshadow="false"
     borderlayer="true"
     units="px"
     inkscape:window-width="1366"
     inkscape:window-height="744"
     inkscape:window-x="0"
     inkscape:window-y="0"
     inkscape:window-maximized="1"
     objecttolerance="20"
     inkscape:snap-path-clip="true"
     inkscape:snap-path-mask="true"
     gridtolerance="10"
     inkscape:snap-perpendicular="true"
     inkscape:snap-tangential="true"
     inkscape:object-paths="true"
     inkscape:snap-intersection-paths="true"
     inkscape:object-nodes="true"
     inkscape:snap-midpoints="true"
     inkscape:snap-smooth-nodes="true"
     inkscape:snap-center="true"
     inkscape:snap-object-midpoints="true"
     inkscape:snap-bbox="true"
     inkscape:bbox-paths="true"
     inkscape:bbox-nodes="true"
     inkscape:snap-bbox-edge-midpoints="true"
     inkscape:snap-bbox-midpoints="true">
    <inkscape:grid
       type="xygrid"
       id="grid3338"
       color="#ffffff"
       opacity="0.1254902"
       empcolor="#ffffff"
       empopacity="0.25098039"
       spacingx="10"
       spacingy="10" />
  </sodipodi:namedview>
  <metadata
     id="metadata7">
    <rdf:RDF>
      <cc:Work
         rdf:about="">
        <dc:format>image/svg+xml</dc:format>
        <dc:type
           rdf:resource="http://purl.org/dc/dcmitype/StillImage" />
        <dc:title />
      </cc:Work>
    </rdf:RDF>
  </metadata>
  <g
     inkscape:label="Layer 1"
     inkscape:groupmode="layer"
     id="layer1"
     transform="translate(0,147.63784)">
    <rect
       style="fill:#000000;fill-opacity:1;stroke:none;stroke-width:12.5;stroke-linejoin:round;stroke-miterlimit:4;stroke-dasharray:none;stroke-opacity:1"
       id="rect4180"
       width="1200"
       height="1200"
       x="0"
       y="-147.63783"
       rx="62.168098"
       ry="62.168098" />
    <g
       id="g3455"
       transform="translate(6.2858263e-5,3.6280968e-5)">
      <path
         inkscape:transform-center-y="-142"
         inkscape:transform-center-x="-111.01977"
         inkscape:connector-curvature="0"
         id="path3343"
         d="m 599.99985,154.66298 0,99.23281 a 24.808207,24.808207 0 0 1 24.80819,24.80826 24.808207,24.808207 0 0 1 -24.80819,24.80818 l 0,148.84926 116.37566,-92.80596 a 24.808207,24.808207 0 0 0 34.86324,3.92865 24.808207,24.808207 0 0 0 3.92664,-34.86328 l 77.5839,-61.87133 A 297.69851,297.69851 0 0 0 599.99985,154.66298 Z"
         style="fill:#f44336;fill-opacity:1;stroke:#000000;stroke-width:13.10292721;stroke-linejoin:round;stroke-miterlimit:4;stroke-dasharray:none;stroke-opacity:1" />
      <path
         style="fill:#ff9800;fill-opacity:1;stroke:#000000;stroke-width:13.10292721;stroke-linejoin:round;stroke-miterlimit:4;stroke-dasharray:none;stroke-opacity:1"
         d="m 832.74971,266.74924 -77.58326,61.87074 a 24.808207,24.808207 0 0 1 -3.9282,34.86352 24.808207,24.808207 0 0 1 -34.86347,-3.92814 l -116.37493,92.80613 145.1177,33.12241 a 24.808207,24.808207 0 0 0 18.66538,29.70663 24.808207,24.808207 0 0 0 29.70539,-18.66694 l 96.74576,22.08127 A 297.69851,297.69851 0 0 0 832.74971,266.74924 Z"
         id="path3373"
         inkscape:connector-curvature="0"
         inkscape:transform-center-x="-141.9998"
         inkscape:transform-center-y="-56.93808" />
      <path
         inkscape:transform-center-y="127.93714"
         inkscape:transform-center-x="-138.43984"
         inkscape:connector-curvature="0"
         id="path3375"
         d="M 890.23459,518.60498 793.4897,496.52383 a 24.808207,24.808207 0 0 1 -29.70656,18.66588 24.808207,24.808207 0 0 1 -18.66591,-29.70647 l -145.11738,-33.12175 64.58342,134.109 a 24.808207,24.808207 0 0 0 -11.58787,33.11496 24.808207,24.808207 0 0 0 33.11543,11.58594 l 43.05626,89.40627 a 297.69851,297.69851 0 0 0 161.0675,-201.97268 z"
         style="fill:#f9ce1d;fill-opacity:1;stroke:#000000;stroke-width:13.10292721;stroke-linejoin:round;stroke-miterlimit:4;stroke-dasharray:none;stroke-opacity:1" />
      <path
         style="fill:#8bc34a;fill-opacity:1;stroke:#000000;stroke-width:13.10292721;stroke-linejoin:round;stroke-miterlimit:4;stroke-dasharray:none;stroke-opacity:1"
         d="M 729.16732,720.57813 686.1115,631.17261 a 24.808207,24.808207 0 0 1 -33.11534,-11.5875 24.808207,24.808207 0 0 1 11.58743,-33.11528 L 599.99985,452.36149 535.41647,586.47051 a 24.808207,24.808207 0 0 0 -33.11523,11.58712 24.808207,24.808207 0 0 0 11.58893,33.11439 l -43.0554,89.40668 a 297.69851,297.69851 0 0 0 258.33255,-5.7e-4 z"
         id="path3377"
         inkscape:connector-curvature="0"
         inkscape:transform-center-x="-0.00114"
         inkscape:transform-center-y="141.99986" />
      <path
         inkscape:transform-center-y="127.93786"
         inkscape:transform-center-x="138.43934"
         inkscape:connector-curvature="0"
         id="path3379"
         d="m 470.83454,720.57917 43.05509,-89.40587 a 24.808207,24.808207 0 0 1 -11.58765,-33.11528 24.808207,24.808207 0 0 1 33.1152,-11.58768 l 64.58267,-134.10885 -145.1177,33.12245 a 24.808207,24.808207 0 0 0 -29.7062,-18.66604 24.808207,24.808207 0 0 0 -18.66426,29.70709 l -96.74554,22.0822 a 297.69851,297.69851 0 0 0 161.06839,201.97198 z"
         style="fill:#009688;fill-opacity:1;stroke:#000000;stroke-width:13.10292721;stroke-linejoin:round;stroke-miterlimit:4;stroke-dasharray:none;stroke-opacity:1" />
      <path
         style="fill:#2196f3;fill-opacity:1;stroke:#000000;stroke-width:13.10292721;stroke-linejoin:round;stroke-miterlimit:4;stroke-dasharray:none;stroke-opacity:1"
         d="m 309.76565,518.6073 96.74471,-22.08194 a 24.808207,24.808207 0 0 1 18.66576,-29.70664 24.808207,24.808207 0 0 1 29.70661,18.66567 l 145.11712,-33.1229 -116.37568,-92.80594 a 24.808207,24.808207 0 0 0 -3.92786,-34.86332 24.808207,24.808207 0 0 0 -34.86291,3.92979 L 367.24892,266.75143 A 297.69851,297.69851 0 0 0 309.76565,518.6073 Z"
         id="path3381"
         inkscape:connector-curvature="0"
         inkscape:transform-center-x="141.99993"
         inkscape:transform-center-y="-56.93587" />
      <path
         inkscape:transform-center-y="-141.99976"
         inkscape:transform-center-x="99.186253"
         inkscape:connector-curvature="0"
         id="path3383"
         d="m 367.25001,266.74925 77.58327,61.87072 a 24.808207,24.808207 0 0 1 34.86352,-3.92807 24.808207,24.808207 0 0 1 3.92811,34.86344 l 116.37494,92.80615 5.8e-4,-148.84973 a 24.808207,24.808207 0 0 0 24.80843,-24.80769 24.808207,24.808207 0 0 0 -24.80893,-24.80689 l -8e-5,-99.23369 A 297.69851,297.69851 0 0 0 367.25001,266.74925 Z"
         style="fill:#3f51b5;fill-opacity:1;stroke:#000000;stroke-width:13.10292721;stroke-linejoin:round;stroke-miterlimit:4;stroke-dasharray:none;stroke-opacity:1" />
    </g>
    <g
       id="g3464"
       transform="matrix(0,-1,1,0,147.60692,1052.3931)">
      <path
         inkscape:transform-center-y="402.93651"
         inkscape:transform-center-x="-184.9678"
         inkscape:connector-curvature="0"
         id="path3403"
         d="M 599.99217,1046.2391 A 593.87756,593.87756 0 0 0 1019.9278,872.29777 l -66.33797,-66.33789 a 50,50 0 0 1 -0.006,0.008 50,50 0 0 1 -70.71094,0.008 50,50 0 0 1 -0.008,-70.71094 50,50 0 0 1 0.0156,-0.0137 l -70.71289,-70.7129 a 300,300 0 0 1 -0.0215,0.0234 300,300 0 0 1 -212.15393,87.70477 l 0,100.18555 a 50,50 0 0 0 -50,50 50,50 0 0 0 50,50 l 0,93.78704 z"
         style="fill:#009688;fill-opacity:1;stroke:#000000;stroke-width:12.37244892;stroke-linejoin:round;stroke-miterlimit:4;stroke-dasharray:none;stroke-opacity:1" />
      <path
         style="fill:#8bc34a;fill-opacity:1;stroke:#000000;stroke-width:12.37244892;stroke-linejoin:round;stroke-miterlimit:4;stroke-dasharray:none;stroke-opacity:1"
         d="m 1019.8256,872.27789 a 593.87756,593.87756 0 0 0 173.9893,-419.91573 l -93.8159,-0.0101 a 50,50 0 0 1 0,0.01 50,50 0 0 1 -49.9999,50.00046 50,50 0 0 1 -50.0005,-49.9999 50,50 0 0 1 0,-0.0207 l -100.00309,-0.0108 a 300,300 0 0 1 10e-4,0.0317 300,300 0 0 1 -88.02164,212.02266 l 70.83426,70.8495 a 50,50 0 0 0 -0.008,70.71068 50,50 0 0 0 70.71068,0.008 l 66.31039,66.32462 z"
         id="path3441"
         inkscape:connector-curvature="0"
         inkscape:transform-center-x="-402.89488"
         inkscape:transform-center-y="209.94271" />
      <path
         inkscape:transform-center-y="-184.96846"
         inkscape:transform-center-x="-402.93497"
         inkscape:connector-curvature="0"
         id="path3443"
         d="M 1193.7869,452.35984 A 593.87756,593.87756 0 0 0 1019.844,32.424893 l -66.33765,66.338091 a 50,50 0 0 1 0.007,0.0067 50,50 0 0 1 0.008,70.710936 50,50 0 0 1 -70.71095,0.008 50,50 0 0 1 -0.0147,-0.0146 l -70.71264,70.71309 a 300,300 0 0 1 0.0231,0.0217 300,300 0 0 1 87.70554,212.15362 l 100.18556,-3.7e-4 a 50,50 0 0 0 49.99994,50.0001 50,50 0 0 0 50.0001,-49.9999 l 93.7871,-3.7e-4 z"
         style="fill:#f9ce1d;fill-opacity:1;stroke:#000000;stroke-width:12.37244892;stroke-linejoin:round;stroke-miterlimit:4;stroke-dasharray:none;stroke-opacity:1" />
      <path
         style="fill:#ff9800;fill-opacity:1;stroke:#000000;stroke-width:12.37244892;stroke-linejoin:round;stroke-miterlimit:4;stroke-dasharray:none;stroke-opacity:1"
         d="M 1019.9158,32.536277 A 593.87756,593.87756 0 0 0 600,-141.45292 l -0.0101,93.81592 a 50,50 0 0 1 0.01,-2.11e-4 50,50 0 0 1 50.0003,50.0000679 50,50 0 0 1 -50.00008,50.0003071 50,50 0 0 1 -0.0207,6.8e-5 l -0.0108,100.003088 a 300,300 0 0 1 0.0317,-9.8e-4 300,300 0 0 1 212.02269,88.02158 l 70.84948,-70.83429 a 50,50 0 0 0 70.71071,0.008 50,50 0 0 0 0.008,-70.710681 l 66.3246,-66.310405 z"
         id="path3445"
         inkscape:connector-curvature="0"
         inkscape:transform-center-x="-209.94221"
         inkscape:transform-center-y="-402.89499" />
      <path
         inkscape:transform-center-y="-402.93533"
         inkscape:transform-center-x="184.96847"
         inkscape:connector-curvature="0"
         id="path3447"
         d="M 599.99769,-141.42493 A 593.87756,593.87756 0 0 0 180.06277,32.518119 l 66.33811,66.337638 a 50,50 0 0 1 0.007,-0.0077 50,50 0 0 1 70.71094,-0.008 50,50 0 0 1 0.008,70.710953 50,50 0 0 1 -0.0146,0.0146 l 70.71309,70.71264 a 300,300 0 0 1 0.0217,-0.0231 300,300 0 0 1 212.15359,-87.7056 L 600.00017,52.364515 A 50,50 0 0 0 650.0003,2.3645911 50,50 0 0 0 600.00039,-47.63551 L 600,-141.42262 Z"
         style="fill:#f44336;fill-opacity:1;stroke:#000000;stroke-width:12.37244892;stroke-linejoin:round;stroke-miterlimit:4;stroke-dasharray:none;stroke-opacity:1" />
      <path
         style="fill:#3f51b5;fill-opacity:1;stroke:#000000;stroke-width:12.37244892;stroke-linejoin:round;stroke-miterlimit:4;stroke-dasharray:none;stroke-opacity:1"
         d="M 180.17417,32.446312 A 593.87756,593.87756 0 0 0 6.1850864,452.36216 l 93.8159236,0.0101 a 50,50 0 0 1 -2.3e-4,-0.0104 50,50 0 0 1 50.00007,-50.00029 50,50 0 0 1 50.00031,50.00008 50,50 0 0 1 4.6e-4,0.0207 l 100.00308,0.0108 a 300,300 0 0 1 -6.4e-4,-0.0316 300,300 0 0 1 88.02153,-212.0227 l -70.83503,-70.84922 a 50,50 0 0 0 0.008,-70.710709 50,50 0 0 0 -70.71068,-0.008 L 180.17744,32.446313 Z"
         id="path3449"
         inkscape:connector-curvature="0"
         inkscape:transform-center-x="402.89466"
         inkscape:transform-center-y="-209.94226" />
      <path
         inkscape:transform-center-y="184.96848"
         inkscape:transform-center-x="402.93536"
         inkscape:connector-curvature="0"
         id="path3451"
         d="M 6.2130806,452.36388 A 593.87756,593.87756 0 0 0 180.15584,872.29893 l 66.3377,-66.33805 a 50,50 0 0 1 -0.008,-0.007 50,50 0 0 1 -0.008,-70.71093 50,50 0 0 1 70.71095,-0.008 50,50 0 0 1 0.015,0.0143 l 70.7127,-70.713 a 300,300 0 0 1 -0.0228,-0.0219 300,300 0 0 1 -87.70545,-212.15364 l -100.18589,0.001 A 50,50 0 0 0 150.00262,402.362 50,50 0 0 0 100.00247,452.36186 l -93.7871465,3e-4 z"
         style="fill:#1e88e5;fill-opacity:1;stroke:#000000;stroke-width:12.37244892;stroke-linejoin:round;stroke-miterlimit:4;stroke-dasharray:none;stroke-opacity:1" />
      <path
         style="fill:#00bcd4;fill-opacity:1;stroke:#000000;stroke-width:12.37244892;stroke-linejoin:round;stroke-miterlimit:4;stroke-dasharray:none;stroke-opacity:1"
         d="m 180.04426,872.14774 a 593.87756,593.87756 0 0 0 419.89925,174.02916 l 0.0191,-93.81592 a 50,50 0 0 1 -0.0106,7e-4 50,50 0 0 1 -49.99555,-50.0048 50,50 0 0 1 50.00481,-49.99557 50,50 0 0 1 0.0207,-4.9e-4 l 0.0204,-100.00307 a 300,300 0 0 1 -0.0316,6.3e-4 300,300 0 0 1 -212.0143,-88.04175 l -70.85597,70.82826 a 50,50 0 0 0 -70.71008,-0.0147 50,50 0 0 0 -0.0147,70.71069 l -66.33095,66.3041 z"
         id="path3453"
         inkscape:connector-curvature="0"
         inkscape:transform-center-x="209.97668"
         inkscape:transform-center-y="402.88479" />
    </g>
  </g>
</svg>
