<svg xmlns="http://www.w3.org/2000/svg" height="84.452pt" width="301.32pt" version="1.1" viewBox="0 0 106.30052 29.792828">
 <g transform="translate(26.692 -251.52)">
  <g transform="translate(0,-8.2527)">
   <path d="m22.985 280.9c-3.7206-1.4272-5.3794-5.7738-3.5577-9.3219 1.6237-3.1624 5.4878-4.435 8.7931-2.8959 1.6902 0.78707 3.4805 2.8134 2.4856 2.8134-0.15492 0-0.58661-0.36241-0.95932-0.80536-2.69-3.1969-7.9647-2.4311-9.7561 1.4164-0.85008 1.8258-0.83661 3.3976 0.04425 5.1652 2.2082 4.4314 8.5026 4.4091 10.573-0.0374 0.35167-0.75531 0.64056-1.6412 0.64198-1.9686 0.0026-0.58914-0.03585-0.59531-3.7016-0.59531-3.1162 0-3.7042-0.063-3.7042-0.39688 0-0.33571 0.63206-0.39687 4.101-0.39687 4.0785 0 4.101 0.003 4.0946 0.59531-0.02516 2.315-1.4236 4.8009-3.3291 5.9175-1.4721 0.86269-4.1782 1.1039-5.7255 0.51034zm24.837-0.003c-5.4258-1.934-5.7995-9.7811-0.58165-12.211 4.4765-2.0845 9.4328 0.96436 9.4608 5.8198 0.02755 4.7752-4.4237 7.9792-8.8791 6.391zm3.6948-0.48579c1.7889-0.46403 3.1175-1.5346 3.9314-3.168 0.91384-1.8338 0.89496-3.4103-0.06293-5.2541-2.1636-4.1646-7.4769-4.4542-10.216-0.55685-0.92001 1.309-1.2206 3.61-0.68399 5.236 0.47206 1.4304 2.3295 3.1831 3.8772 3.6586 1.6167 0.4967 1.5697 0.49544 3.1544 0.0844zm9.0078 0.23817c-1.3565-0.50492-2.4931-1.6309-2.8146-2.7885-0.14379-0.5176-0.2621-2.8758-0.26291-5.2406-0.0013-3.646 0.05884-4.2995 0.3954-4.2995 0.33745 0 0.39688 0.68396 0.39688 4.5682 0 5.2434 0.21575 5.9875 2.0086 6.9274 1.4261 0.74763 4.1174 0.75001 5.3997 0.005 1.6341-0.94965 1.8512-1.763 1.8517-6.9363 0.000349-3.8804 0.05986-4.5641 0.39728-4.5641 0.33766 0 0.39601 0.68092 0.39106 4.5641-0.0067 5.2846-0.2782 6.2913-1.9801 7.3431-1.2522 0.77391-4.2491 0.99224-5.783 0.4213zm-87.217-6.1108c0-3.9688 0.0957-6.2177 0.26458-6.2177s0.26458 2.249 0.26458 6.2177c0 3.9688-0.0957 6.2177-0.26458 6.2177s-0.26458-2.249-0.26458-6.2177zm1.8521 0c0-5.8443 0.02902-6.2177 0.48324-6.2177 0.30544 0 2.228 2.0871 5.2255 5.6726l4.7423 5.6726 0.07131-5.6726c0.04377-3.4817 0.1715-5.6726 0.33073-5.6726 0.16215 0 0.25942 2.3314 0.25942 6.2177 0 4.8-0.07541 6.2168-0.33073 6.2137-0.1819-0.002-2.4739-2.5643-5.0932-5.6934l-4.7625-5.6893-0.07131 5.6934c-0.06035 4.819-0.13147 5.6934-0.46302 5.6934-0.33478 0-0.39172-0.90364-0.39172-6.2177zm16.669 0.26459v-5.9531h-2.6458c-1.5875 0-2.6458-0.10583-2.6458-0.26458 0-0.17192 3.6601-0.26458 10.451-0.26458 6.791 0 10.451 0.0927 10.451 0.26458 0 0.16601-1.6757 0.26458-4.4979 0.26458h-4.4979v5.0271h4.2333c3.5866 0 4.2333 0.0606 4.2333 0.39687 0 0.33624-0.64676 0.39688-4.2333 0.39688h-4.2333v5.5562h4.6302c2.9104 0 4.6302 0.0983 4.6302 0.26458 0 0.16711-1.8521 0.26458-5.0271 0.26458h-5.0271v-11.906h-5.2916v5.9531c0 3.7924-0.096034 5.9531-0.26458 5.9531s-0.26458-2.1608-0.26458-5.9531zm16.14-0.26459v-6.2177l3.9026 0.006c5.3008 0.008 6.6962 0.62565 6.6714 2.9534-0.01275 1.1945-0.54215 2.0586-1.6096 2.6274-0.58706 0.3128-0.73127 0.48046-0.41952 0.48773 0.26128 0.006 0.76729 0.30334 1.1245 0.66053 0.59881 0.59881 0.64943 0.84632 0.64943 3.175 0 1.5073-0.10667 2.5256-0.26458 2.5256-0.15452 0-0.26458-0.88774-0.26458-2.1341 0-3.5994-0.4937-3.9514-5.5431-3.9514h-3.4538v3.0427c0 2.5282-0.067104 3.0427-0.39688 3.0427-0.34152 0-0.39688-0.86724-0.39688-6.2177zm8.4613-1.1249c1.8528-0.93097 2.0557-2.678 0.45004-3.8752-0.65838-0.49091-1.1786-0.56631-4.4318-0.64234l-3.6858-0.0861v5.067l3.3734-0.00043c2.6836-0.00031 3.5617-0.095 4.2941-0.46302zm16.41 1.1249v-6.2177h3.8192c2.1006 0 4.1544 0.12699 4.5641 0.2822 2.4994 0.947 2.8793 3.6904 0.71292 5.1486l-0.82567 0.55575 0.73806 0.3267c0.43215 0.19128 0.85662 0.66679 1.0241 1.1472 0.33902 0.97251 0.38629 4.9749 0.05876 4.9749-0.12501 0-0.28924-0.99302-0.36496-2.2067s-0.26858-2.4513-0.42858-2.7503c-0.46179-0.86286-1.7252-1.1284-5.3686-1.1284h-3.401v3.0427c0 1.8521-0.10353 3.0427-0.26458 3.0427-0.16888 0-0.26458-2.249-0.26458-6.2177zm7.6361-0.82607c2.6812-0.53624 2.9426-3.8688 0.35976-4.5861-0.54141-0.15036-2.4429-0.27405-4.2255-0.27486l-3.2411-0.001v5.0271h3.1419c1.7281 0 3.5123-0.0741 3.965-0.16462zm28.876 0.82607v-6.2177h3.7127c3.9132 0 4.9769 0.22816 5.9009 1.2659 0.69956 0.7856 0.85556 2.4383 0.33393 3.5376-0.76758 1.6176-1.6587 1.9313-5.7803 2.035l-3.638 0.0915v2.7528c0 1.6588-0.10515 2.7528-0.26458 2.7528-0.16888 0-0.26458-2.249-0.26458-6.2177zm7.2424-0.15516c2.7938-0.77573 3.137-4.078 0.53676-5.1644-0.58912-0.24615-1.9424-0.36893-4.0665-0.36893h-3.1835v5.8208l2.8443-0.001c1.5643-0.00082 3.3054-0.1295 3.8689-0.28598z"/>
   <path d="m62.103 270.19c-0.93368-2.0805-1.0023-4.9144-0.16475-6.8078 0.30959-0.69988 0.63497-1.7984 0.72307-2.4411l0.16017-1.1686 0.48483 0.59874c0.67682 0.83584 1.2835 3.0332 1.2835 4.6489 0 0.75658-0.29371 2.2244-0.66146 3.3056-0.3638 1.0696-0.66146 2.2811-0.66146 2.6922 0 1.1676-0.39418 0.88718-1.1639-0.82792z" fill="#0f0"/>
  </g>
 </g>
</svg>
